<svg width="1375" height="2711" viewBox="0 0 1375 2711" fill="none" xmlns="http://www.w3.org/2000/svg">
<mask id="mask0_523_576" style="mask-type:luminance" maskUnits="userSpaceOnUse" x="948" y="0" width="427" height="426">
<path d="M948.245 0H1374.24V426H948.245V0Z" fill="white"/>
</mask>
<g mask="url(#mask0_523_576)">
<path d="M1161.22 425.969C1043.78 425.969 948.229 330.422 948.229 212.979C948.229 95.5365 1043.78 -0.0104065 1161.22 -0.0104065C1278.67 -0.0104065 1374.21 95.5365 1374.21 212.979C1374.21 330.422 1278.67 425.969 1161.22 425.969Z" fill="#DB6262"/>
</g>
<mask id="mask1_523_576" style="mask-type:luminance" maskUnits="userSpaceOnUse" x="951" y="3" width="420" height="420">
<path d="M951.458 3.21387H1370.99V422.745H951.458V3.21387Z" fill="white"/>
</mask>
<g mask="url(#mask1_523_576)">
<mask id="mask2_523_576" style="mask-type:luminance" maskUnits="userSpaceOnUse" x="951" y="3" width="420" height="420">
<path d="M1161.22 422.745C1045.56 422.745 951.458 328.641 951.458 212.979C951.458 97.3128 1045.56 3.21387 1161.22 3.21387C1276.89 3.21387 1370.99 97.3128 1370.99 212.979C1370.99 328.641 1276.89 422.745 1161.22 422.745ZM1161.22 56.141C1074.6 56.141 1004.38 126.36 1004.38 212.979C1004.38 299.594 1074.6 369.818 1161.22 369.818C1247.84 369.818 1318.06 299.594 1318.06 212.979C1318.06 126.36 1247.84 56.141 1161.22 56.141Z" fill="white"/>
</mask>
<g mask="url(#mask2_523_576)">
<mask id="mask3_523_576" style="mask-type:luminance" maskUnits="userSpaceOnUse" x="951" y="3" width="420" height="420">
<path d="M1161.22 422.745C1045.56 422.745 951.458 328.641 951.458 212.979C951.458 97.3128 1045.56 3.21387 1161.22 3.21387C1276.89 3.21387 1370.99 97.3128 1370.99 212.979C1370.99 328.641 1276.89 422.745 1161.22 422.745ZM1161.22 56.141C1074.6 56.141 1004.38 126.36 1004.38 212.979C1004.38 299.594 1074.6 369.818 1161.22 369.818C1247.84 369.818 1318.06 299.594 1318.06 212.979C1318.06 126.36 1247.84 56.141 1161.22 56.141Z" fill="white"/>
</mask>
<g mask="url(#mask3_523_576)">
<path d="M951.458 3.21387V422.745H1370.99V3.21387H951.458Z" fill="url(#paint0_radial_523_576)"/>
</g>
</g>
</g>
<mask id="mask4_523_576" style="mask-type:luminance" maskUnits="userSpaceOnUse" x="951" y="3" width="420" height="420">
<path d="M951.458 3.21387H1370.99V422.745H951.458V3.21387Z" fill="white"/>
</mask>
<g mask="url(#mask4_523_576)">
<mask id="mask5_523_576" style="mask-type:luminance" maskUnits="userSpaceOnUse" x="951" y="3" width="420" height="420">
<path d="M1161.22 422.745C1045.56 422.745 951.458 328.641 951.458 212.979C951.458 97.3128 1045.56 3.21387 1161.22 3.21387C1276.89 3.21387 1370.99 97.3128 1370.99 212.979C1370.99 328.641 1276.89 422.745 1161.22 422.745ZM1161.22 56.141C1074.6 56.141 1004.38 126.36 1004.38 212.979C1004.38 299.594 1074.6 369.818 1161.22 369.818C1247.84 369.818 1318.06 299.594 1318.06 212.979C1318.06 126.36 1247.84 56.141 1161.22 56.141Z" fill="white"/>
</mask>
<g mask="url(#mask5_523_576)">
<mask id="mask6_523_576" style="mask-type:luminance" maskUnits="userSpaceOnUse" x="951" y="3" width="420" height="420">
<path d="M1161.22 422.745C1045.56 422.745 951.458 328.641 951.458 212.979C951.458 97.3128 1045.56 3.21387 1161.22 3.21387C1276.89 3.21387 1370.99 97.3128 1370.99 212.979C1370.99 328.641 1276.89 422.745 1161.22 422.745ZM1161.22 56.141C1074.6 56.141 1004.38 126.36 1004.38 212.979C1004.38 299.594 1074.6 369.818 1161.22 369.818C1247.84 369.818 1318.06 299.594 1318.06 212.979C1318.06 126.36 1247.84 56.141 1161.22 56.141Z" fill="white"/>
</mask>
<g mask="url(#mask6_523_576)">
<path d="M951.458 3.21387V422.745H1370.99V3.21387H951.458Z" fill="url(#paint1_radial_523_576)"/>
</g>
</g>
</g>
<mask id="mask7_523_576" style="mask-type:luminance" maskUnits="userSpaceOnUse" x="1004" y="56" width="315" height="315">
<path d="M1004.33 56.0889H1318.29V370.047H1004.33V56.0889Z" fill="white"/>
</mask>
<g mask="url(#mask7_523_576)">
<mask id="mask8_523_576" style="mask-type:luminance" maskUnits="userSpaceOnUse" x="1004" y="56" width="315" height="314">
<path d="M1161.22 369.818C1074.6 369.818 1004.38 299.594 1004.38 212.98C1004.38 126.36 1074.6 56.141 1161.22 56.141C1247.84 56.141 1318.06 126.36 1318.06 212.98C1318.06 299.594 1247.84 369.818 1161.22 369.818ZM1161.22 69.0472C1081.86 69.0472 1017.29 133.615 1017.29 212.98C1017.29 292.344 1081.86 356.912 1161.22 356.912C1240.58 356.912 1305.15 292.344 1305.15 212.98C1305.15 133.615 1240.58 69.0472 1161.22 69.0472Z" fill="white"/>
</mask>
<g mask="url(#mask8_523_576)">
<mask id="mask9_523_576" style="mask-type:luminance" maskUnits="userSpaceOnUse" x="1004" y="56" width="315" height="314">
<path d="M1161.22 369.818C1074.6 369.818 1004.38 299.594 1004.38 212.98C1004.38 126.36 1074.6 56.141 1161.22 56.141C1247.84 56.141 1318.06 126.36 1318.06 212.98C1318.06 299.594 1247.84 369.818 1161.22 369.818ZM1161.22 69.0472C1081.86 69.0472 1017.29 133.615 1017.29 212.98C1017.29 292.344 1081.86 356.912 1161.22 356.912C1240.58 356.912 1305.15 292.344 1305.15 212.98C1305.15 133.615 1240.58 69.0472 1161.22 69.0472Z" fill="white"/>
</mask>
<g mask="url(#mask9_523_576)">
<mask id="mask10_523_576" style="mask-type:luminance" maskUnits="userSpaceOnUse" x="847" y="-101" width="628" height="628">
<path d="M1161.22 526.657L1474.9 212.98L1161.22 -100.703L847.542 212.98L1161.22 526.657Z" fill="white"/>
</mask>
<g mask="url(#mask10_523_576)">
<path d="M1161.22 526.657L1474.9 212.98L1161.22 -100.703L847.542 212.98L1161.22 526.657Z" fill="url(#paint2_linear_523_576)"/>
</g>
</g>
</g>
</g>
<mask id="mask11_523_576" style="mask-type:luminance" maskUnits="userSpaceOnUse" x="1017" y="69" width="289" height="288">
<path d="M1017.16 69.0469H1305.15V356.911H1017.16V69.0469Z" fill="white"/>
</mask>
<g mask="url(#mask11_523_576)">
<mask id="mask12_523_576" style="mask-type:luminance" maskUnits="userSpaceOnUse" x="1017" y="69" width="289" height="288">
<path d="M1161.22 356.911C1081.86 356.911 1017.29 292.344 1017.29 212.979C1017.29 133.615 1081.86 69.0469 1161.22 69.0469C1240.58 69.0469 1305.15 133.615 1305.15 212.979C1305.15 292.344 1240.58 356.911 1161.22 356.911ZM1161.97 72.8125C1104.29 72.8125 1047.63 112.974 1029.74 169.422C1014.81 216.536 1021.8 264.672 1053.99 297.901C1036.26 267.339 1041.28 229.703 1052.77 193.443C1070.28 138.172 1121.56 102.771 1176.68 102.771C1189.65 102.771 1202.83 104.729 1215.83 108.849C1237 115.563 1257.89 116.896 1272.35 131.823C1256.69 104.839 1230.05 88.474 1198.03 78.3229C1186.2 74.5781 1174.06 72.8125 1161.97 72.8125Z" fill="white"/>
</mask>
<g mask="url(#mask12_523_576)">
<mask id="mask13_523_576" style="mask-type:luminance" maskUnits="userSpaceOnUse" x="1017" y="69" width="289" height="288">
<path d="M1161.22 356.911C1081.86 356.911 1017.29 292.344 1017.29 212.979C1017.29 133.615 1081.86 69.0469 1161.22 69.0469C1240.58 69.0469 1305.15 133.615 1305.15 212.979C1305.15 292.344 1240.58 356.911 1161.22 356.911ZM1161.97 72.8125C1104.29 72.8125 1047.63 112.974 1029.74 169.422C1014.81 216.536 1021.8 264.672 1053.99 297.901C1036.26 267.339 1041.28 229.703 1052.77 193.443C1070.28 138.172 1121.56 102.771 1176.68 102.771C1189.65 102.771 1202.83 104.729 1215.83 108.849C1237 115.563 1257.89 116.896 1272.35 131.823C1256.69 104.839 1230.05 88.474 1198.03 78.3229C1186.2 74.5781 1174.06 72.8125 1161.97 72.8125Z" fill="white"/>
</mask>
<g mask="url(#mask13_523_576)">
<path d="M1017.16 69.0469V356.911H1305.15V69.0469H1017.16Z" fill="url(#paint3_radial_523_576)"/>
</g>
</g>
</g>
<mask id="mask14_523_576" style="mask-type:luminance" maskUnits="userSpaceOnUse" x="1021" y="72" width="252" height="226">
<path d="M1021.81 72.8125H1272.35V297.901H1021.81V72.8125Z" fill="white"/>
</mask>
<g mask="url(#mask14_523_576)">
<mask id="mask15_523_576" style="mask-type:luminance" maskUnits="userSpaceOnUse" x="1022" y="72" width="251" height="226">
<path d="M1053.99 297.901C1021.8 264.672 1014.81 216.536 1029.74 169.422C1047.63 112.974 1104.29 72.8125 1161.97 72.8125C1174.06 72.8125 1186.2 74.5781 1198.03 78.3229C1230.05 88.474 1256.69 104.839 1272.35 131.823C1257.89 116.896 1237 115.563 1215.83 108.849C1202.83 104.729 1189.65 102.771 1176.68 102.771C1121.56 102.771 1070.28 138.172 1052.77 193.443C1041.28 229.703 1036.26 267.339 1053.99 297.901Z" fill="white"/>
</mask>
<g mask="url(#mask15_523_576)">
<mask id="mask16_523_576" style="mask-type:luminance" maskUnits="userSpaceOnUse" x="1022" y="72" width="251" height="226">
<path d="M1053.99 297.901C1021.8 264.672 1014.81 216.536 1029.74 169.422C1047.63 112.974 1104.29 72.8125 1161.97 72.8125C1174.06 72.8125 1186.2 74.5781 1198.03 78.3229C1230.05 88.474 1256.69 104.839 1272.35 131.823C1257.89 116.896 1237 115.563 1215.83 108.849C1202.83 104.729 1189.65 102.771 1176.68 102.771C1121.56 102.771 1070.28 138.172 1052.77 193.443C1041.28 229.703 1036.26 267.339 1053.99 297.901Z" fill="white"/>
</mask>
<g mask="url(#mask16_523_576)">
<path d="M1021.81 72.8125V297.901H1272.35V72.8125H1021.81Z" fill="url(#paint4_radial_523_576)"/>
</g>
</g>
</g>
<path d="M1234.61 75.9946L1118.33 93.5571C1103.3 95.8279 1098.33 105.75 1099.6 114.187C1100.79 122.094 1107.75 128.864 1117.24 127.432L1133.06 125.041L1123.39 169.922L1111.26 171.755C1097.02 173.906 1091.48 183.64 1092.76 192.078C1093.99 200.255 1101.51 207.208 1114.17 205.297L1116.81 204.896L1106.55 256.609C1101.33 282.745 1091.5 289.088 1077.79 291.156C1068.29 292.588 1060.75 287.26 1057.42 281.291C1057.66 279.364 1057.65 277.479 1057.37 275.63C1055.54 263.505 1043.62 257.755 1033.33 259.307C1022.78 260.901 1013.35 269.875 1015.9 286.75C1019.69 311.797 1048.48 332.802 1083.02 327.583C1110.18 323.479 1134.94 307.067 1143.59 262.609C1147.13 243.198 1152.25 218.151 1156.06 198.698L1171.87 196.312C1187.96 193.88 1192.89 183.698 1191.58 174.995C1190.43 167.349 1184.3 160.724 1176.39 161.916L1162.68 163.989L1171.03 119.307L1232.99 109.948C1247.68 107.192 1252.73 97.7966 1251.46 89.3591C1250.26 81.4477 1243.57 74.6404 1234.61 75.9946Z" fill="#A6A6A6" fill-opacity="0.302"/>
<path d="M1222.46 61.8193L1106.18 79.3818C1091.15 81.6526 1086.18 91.5745 1087.46 100.012C1088.65 107.918 1095.6 114.689 1105.1 113.257L1120.92 110.866L1111.24 155.746L1099.12 157.58C1084.88 159.731 1079.34 169.465 1080.61 177.903C1081.85 186.08 1089.37 193.033 1102.02 191.121L1104.66 190.72L1094.4 242.434C1089.18 268.569 1079.35 274.913 1065.64 276.981C1056.15 278.413 1048.6 273.085 1045.27 267.116C1045.52 265.189 1045.51 263.304 1045.23 261.455C1043.39 249.33 1031.47 243.58 1021.19 245.132C1010.64 246.726 1001.21 255.699 1003.76 272.574C1007.54 297.621 1036.33 318.627 1070.87 313.408C1098.03 309.304 1122.79 292.892 1131.45 248.434C1134.99 229.022 1140.1 203.976 1143.91 184.522L1159.73 182.137C1175.81 179.705 1180.75 169.522 1179.43 160.819C1178.28 153.173 1172.15 146.548 1164.24 147.741L1150.53 149.814L1158.88 105.132L1220.85 95.7724C1235.53 93.0172 1240.59 83.6213 1239.31 75.1838C1238.12 67.2724 1231.43 60.4651 1222.46 61.8193Z" fill="#A6A6A6" fill-opacity="0.502"/>
<path d="M1210.32 47.644L1094.04 65.2065C1079.01 67.4773 1074.04 77.3992 1075.31 85.8367C1076.5 93.7429 1083.46 100.514 1092.95 99.0815L1108.77 96.6908L1099.1 141.571L1086.97 143.404C1072.73 145.555 1067.19 155.29 1068.47 163.727C1069.7 171.904 1077.22 178.858 1089.88 176.946L1092.51 176.545L1082.26 228.259C1077.04 254.394 1067.21 260.738 1053.5 262.805C1044 264.238 1036.46 258.91 1033.13 252.941C1033.37 251.014 1033.36 249.128 1033.08 247.279C1031.25 235.154 1019.33 229.404 1009.04 230.956C998.494 232.55 989.062 241.524 991.614 258.399C995.395 283.446 1024.19 304.451 1058.73 299.233C1085.88 295.128 1110.65 278.717 1119.3 234.259C1122.84 214.847 1127.96 189.8 1131.76 170.347L1147.58 167.962C1163.67 165.529 1168.6 155.347 1167.29 146.644C1166.13 138.998 1160.01 132.373 1152.1 133.566L1138.38 135.639L1146.74 90.9565L1208.7 81.5971C1223.39 78.8419 1228.44 69.4461 1227.17 61.0086C1225.97 53.0971 1219.28 46.2898 1210.32 47.644Z" fill="#737373"/>
<path d="M1265.47 177.255C1258.09 178.37 1248.83 181.386 1242.96 187.125C1241.12 178.505 1231.54 174.021 1222.05 175.453C1212.56 176.886 1203.6 183.636 1200.85 197.531L1163.01 398.771C1162.43 402.094 1162.08 405.115 1162.48 407.75C1164.23 419.349 1175.06 424.995 1185.61 423.401C1194.31 422.089 1202.74 415.422 1205.09 402.391L1214.91 347.781C1225.45 355.089 1239.74 358.594 1254.5 356.365C1280.34 352.464 1305.9 332.422 1312.7 297.141L1324.69 235.458C1326.07 228.511 1326.36 221.453 1325.48 215.656C1320.9 185.333 1294.48 172.875 1265.47 177.255ZM1281.13 243.391L1272.17 293.016C1269.68 306.875 1260.69 315.245 1250.41 316.797C1238.81 318.552 1228.01 311.281 1226.21 299.417C1225.89 297.307 1225.92 295.688 1226.39 293.458L1236.5 237.188C1239.32 221.927 1249.37 215.287 1259.92 213.693C1270.46 212.099 1279.41 217.761 1281.32 230.417C1281.84 233.844 1281.95 238.141 1281.13 243.391Z" fill="#A6A6A6" fill-opacity="0.302"/>
<path d="M1253.32 163.08C1245.94 164.195 1236.69 167.21 1230.81 172.95C1228.98 164.33 1219.4 159.846 1209.9 161.278C1200.41 162.71 1191.46 169.46 1188.7 183.356L1150.87 384.596C1150.29 387.919 1149.93 390.939 1150.34 393.575C1152.09 405.174 1162.92 410.82 1173.47 409.226C1182.16 407.913 1190.6 401.247 1192.94 388.215L1202.76 333.606C1213.3 340.913 1227.59 344.419 1242.36 342.189C1268.19 338.288 1293.75 318.247 1300.56 282.965L1312.55 221.283C1313.93 214.335 1314.21 207.278 1313.34 201.481C1308.75 171.158 1282.33 158.7 1253.32 163.08ZM1268.98 229.215L1260.02 278.84C1257.53 292.7 1248.55 301.07 1238.27 302.622C1226.66 304.377 1215.86 297.106 1214.06 285.241C1213.75 283.132 1213.77 281.512 1214.25 279.283L1224.36 223.012C1227.17 207.752 1237.23 201.111 1247.77 199.518C1258.32 197.924 1267.27 203.585 1269.18 216.241C1269.69 219.669 1269.8 223.965 1268.98 229.215Z" fill="#A6A6A6" fill-opacity="0.502"/>
<path d="M1241.18 148.905C1233.8 150.019 1224.54 153.035 1218.67 158.775C1216.83 150.155 1207.25 145.67 1197.76 147.103C1188.27 148.535 1179.31 155.285 1176.55 169.181L1138.72 370.42C1138.14 373.743 1137.79 376.764 1138.19 379.4C1139.94 390.998 1150.77 396.644 1161.32 395.051C1170.02 393.738 1178.45 387.071 1180.8 374.04L1190.62 319.431C1201.16 326.738 1215.45 330.243 1230.21 328.014C1256.05 324.113 1281.61 304.071 1288.41 268.79L1300.4 207.108C1301.78 200.16 1302.06 193.103 1301.19 187.306C1296.61 156.983 1270.18 144.525 1241.18 148.905ZM1256.84 215.04L1247.88 264.665C1245.39 278.525 1236.4 286.894 1226.12 288.446C1214.52 290.202 1203.72 282.931 1201.92 271.066C1201.6 268.957 1201.63 267.337 1202.1 265.108L1212.21 208.837C1215.03 193.577 1225.08 186.936 1235.63 185.342C1246.17 183.748 1255.12 189.41 1257.03 202.066C1257.55 205.493 1257.66 209.79 1256.84 215.04Z" fill="#737373"/>
<defs>
<radialGradient id="paint0_radial_523_576" cx="0" cy="0" r="1" gradientUnits="userSpaceOnUse" gradientTransform="translate(1161.22 212.979) scale(209.765)">
<stop stop-color="#F1F2F2"/>
<stop offset="0.5" stop-color="#F1F2F2"/>
<stop offset="0.75" stop-color="#F1F2F2"/>
<stop offset="0.8125" stop-color="#F1F1F1"/>
<stop offset="0.859375" stop-color="#F1F1F1"/>
<stop offset="0.894531" stop-color="#F0F0F0"/>
<stop offset="1" stop-color="#F0F0F0"/>
</radialGradient>
<radialGradient id="paint1_radial_523_576" cx="0" cy="0" r="1" gradientUnits="userSpaceOnUse" gradientTransform="translate(1161.22 212.979) scale(209.765)">
<stop stop-color="#F1F2F2"/>
<stop offset="0.5" stop-color="#F1F2F2"/>
<stop offset="0.75" stop-color="#F1F2F2"/>
<stop offset="0.8125" stop-color="#F1F1F1"/>
<stop offset="0.859375" stop-color="#F1F1F1"/>
<stop offset="0.894531" stop-color="#F0F0F0"/>
<stop offset="1" stop-color="#F0F0F0"/>
</radialGradient>
<linearGradient id="paint2_linear_523_576" x1="1318.02" y1="369.856" x2="1004.34" y2="56.1765" gradientUnits="userSpaceOnUse">
<stop stop-color="white"/>
<stop offset="0.125" stop-color="white"/>
<stop offset="0.15625" stop-color="white"/>
<stop offset="0.171875" stop-color="#FEFEFE"/>
<stop offset="0.1875" stop-color="#FDFDFD"/>
<stop offset="0.195312" stop-color="#FDFDFD"/>
<stop offset="0.203125" stop-color="#FCFCFC"/>
<stop offset="0.21875" stop-color="#FBFBFB"/>
<stop offset="0.234375" stop-color="#FBFBFB"/>
<stop offset="0.25" stop-color="#FAFAFA"/>
<stop offset="0.265625" stop-color="#F9F9F9"/>
<stop offset="0.28125" stop-color="#F8F8F8"/>
<stop offset="0.296875" stop-color="#F8F8F8"/>
<stop offset="0.3125" stop-color="#F7F7F7"/>
<stop offset="0.320312" stop-color="#F6F6F6"/>
<stop offset="0.328125" stop-color="#F5F5F5"/>
<stop offset="0.34375" stop-color="#F5F5F5"/>
<stop offset="0.359375" stop-color="#F4F4F4"/>
<stop offset="0.375" stop-color="#F4F4F4"/>
<stop offset="0.390625" stop-color="#F3F3F3"/>
<stop offset="0.398437" stop-color="#F2F2F2"/>
<stop offset="0.40625" stop-color="#F1F1F1"/>
<stop offset="0.421875" stop-color="#F0F0F0"/>
<stop offset="0.4375" stop-color="#EFEFEF"/>
<stop offset="0.445312" stop-color="#EFEFEF"/>
<stop offset="0.453125" stop-color="#EEEEEE"/>
<stop offset="0.46875" stop-color="#EDEDED"/>
<stop offset="0.476562" stop-color="#EDEDED"/>
<stop offset="0.484375" stop-color="#ECECEC"/>
<stop offset="0.5" stop-color="#ECECEC"/>
<stop offset="0.515625" stop-color="#EBEBEB"/>
<stop offset="0.523437" stop-color="#EBEBEB"/>
<stop offset="0.53125" stop-color="#EAEAEA"/>
<stop offset="0.546875" stop-color="#EAEAEA"/>
<stop offset="0.5625" stop-color="#E9E9E9"/>
<stop offset="0.570312" stop-color="#E8E8E8"/>
<stop offset="0.578125" stop-color="#E7E7E7"/>
<stop offset="0.59375" stop-color="#E7E7E7"/>
<stop offset="0.601562" stop-color="#E6E6E6"/>
<stop offset="0.609375" stop-color="#E5E5E5"/>
<stop offset="0.625" stop-color="#E4E4E4"/>
<stop offset="0.640625" stop-color="#E4E4E4"/>
<stop offset="0.648437" stop-color="#E4E4E4"/>
<stop offset="0.65625" stop-color="#E3E3E3"/>
<stop offset="0.671875" stop-color="#E2E2E2"/>
<stop offset="0.6875" stop-color="#E1E1E1"/>
<stop offset="0.695312" stop-color="#E1E1E1"/>
<stop offset="0.703125" stop-color="#E0E0E0"/>
<stop offset="0.71875" stop-color="#E0E0E0"/>
<stop offset="0.726562" stop-color="#DFDFDF"/>
<stop offset="0.734375" stop-color="#DEDEDE"/>
<stop offset="0.75" stop-color="#DEDEDE"/>
<stop offset="0.757812" stop-color="#DDDDDD"/>
<stop offset="0.765625" stop-color="#DCDCDC"/>
<stop offset="0.78125" stop-color="#DCDCDC"/>
<stop offset="0.796875" stop-color="#DCDCDC"/>
<stop offset="0.8125" stop-color="#DBDBDB"/>
<stop offset="0.820312" stop-color="#DADADA"/>
<stop offset="0.828125" stop-color="#D9D9D9"/>
<stop offset="0.84375" stop-color="#D8D8D8"/>
<stop offset="0.859375" stop-color="#D8D8D8"/>
<stop offset="0.875" stop-color="#D7D7D7"/>
<stop offset="1" stop-color="#D7D7D7"/>
</linearGradient>
<radialGradient id="paint3_radial_523_576" cx="0" cy="0" r="1" gradientUnits="userSpaceOnUse" gradientTransform="translate(1161.22 212.978) scale(143.931 143.931)">
<stop stop-color="#F1F2F2"/>
<stop offset="0.25" stop-color="#F0F1F1"/>
<stop offset="0.625" stop-color="#F0F1F1"/>
<stop offset="0.648438" stop-color="#EFF0F0"/>
<stop offset="0.691406" stop-color="#EFF0F0"/>
<stop offset="0.726562" stop-color="#EEEFEF"/>
<stop offset="0.757812" stop-color="#EEEFEF"/>
<stop offset="0.785156" stop-color="#EDEEEE"/>
<stop offset="0.808594" stop-color="#ECEDEE"/>
<stop offset="0.832031" stop-color="#ECEDED"/>
<stop offset="0.851562" stop-color="#EBECED"/>
<stop offset="0.867188" stop-color="#EBECEC"/>
<stop offset="0.882812" stop-color="#EBECEC"/>
<stop offset="0.894531" stop-color="#EAEBEB"/>
<stop offset="0.917969" stop-color="#E9EAEB"/>
<stop offset="0.925781" stop-color="#E9EAEB"/>
<stop offset="0.941406" stop-color="#E8E9EA"/>
<stop offset="0.96875" stop-color="#E7E8E9"/>
<stop offset="0.976562" stop-color="#E7E8E9"/>
<stop offset="0.980469" stop-color="#E6E7E8"/>
<stop offset="1" stop-color="#E6E7E8"/>
</radialGradient>
<radialGradient id="paint4_radial_523_576" cx="0" cy="0" r="1" gradientUnits="userSpaceOnUse" gradientTransform="translate(1161.22 212.978) scale(143.931 143.931)">
<stop stop-color="#F8F9F9"/>
<stop offset="0.5" stop-color="#F8F9F9"/>
<stop offset="0.5625" stop-color="#F7F8F8"/>
<stop offset="0.671875" stop-color="#F7F7F8"/>
<stop offset="0.753906" stop-color="#F6F7F7"/>
<stop offset="0.8125" stop-color="#F6F6F7"/>
<stop offset="0.859375" stop-color="#F5F6F6"/>
<stop offset="0.894531" stop-color="#F5F5F6"/>
<stop offset="0.917969" stop-color="#F4F4F5"/>
<stop offset="0.9375" stop-color="#F3F3F4"/>
<stop offset="1" stop-color="#F3F3F4"/>
</radialGradient>
</defs>
</svg>
