<svg xmlns="http://www.w3.org/2000/svg" xmlns:xlink="http://www.w3.org/1999/xlink" width="100" zoomAndPan="magnify" viewBox="0 0 375 374.999991" height="100" preserveAspectRatio="xMidYMid meet" version="1.0"><defs><g/><clipPath id="b6bf7b9969"><path d="M 27.933594 27.933594 L 347.433594 27.933594 L 347.433594 347.433594 L 27.933594 347.433594 Z M 27.933594 27.933594 " clip-rule="nonzero"/></clipPath><clipPath id="211bb46927"><path d="M 30.34375 30.34375 L 344.992188 30.34375 L 344.992188 344.992188 L 30.34375 344.992188 Z M 30.34375 30.34375 " clip-rule="nonzero"/></clipPath><clipPath id="a9f26df39f"><path d="M 187.667969 344.992188 C 100.917969 344.992188 30.34375 274.414062 30.34375 187.667969 C 30.34375 100.917969 100.917969 30.34375 187.667969 30.34375 C 274.414062 30.34375 344.992188 100.917969 344.992188 187.667969 C 344.992188 274.414062 274.414062 344.992188 187.667969 344.992188 M 187.667969 70.039062 C 122.703125 70.039062 70.035156 122.703125 70.035156 187.667969 C 70.035156 252.628906 122.703125 305.296875 187.667969 305.296875 C 252.632812 305.296875 305.292969 252.628906 305.292969 187.667969 C 305.292969 122.703125 252.632812 70.039062 187.667969 70.039062 " clip-rule="nonzero"/></clipPath><clipPath id="65771dd58b"><path d="M 187.667969 344.992188 C 100.917969 344.992188 30.34375 274.414062 30.34375 187.667969 C 30.34375 100.917969 100.917969 30.34375 187.667969 30.34375 C 274.414062 30.34375 344.992188 100.917969 344.992188 187.667969 C 344.992188 274.414062 274.414062 344.992188 187.667969 344.992188 M 187.667969 70.039062 C 122.703125 70.039062 70.035156 122.703125 70.035156 187.667969 C 70.035156 252.628906 122.703125 305.296875 187.667969 305.296875 C 252.632812 305.296875 305.292969 252.628906 305.292969 187.667969 C 305.292969 122.703125 252.632812 70.039062 187.667969 70.039062 " clip-rule="nonzero"/></clipPath><radialGradient gradientTransform="matrix(1, 0, 0, 1, 187.66624, 187.667295)" gradientUnits="userSpaceOnUse" r="157.323858" cx="0" id="498ca1fbc7" cy="0" fx="0" fy="0"><stop stop-opacity="1" stop-color="rgb(94.499207%, 94.898987%, 94.898987%)" offset="0"/><stop stop-opacity="1" stop-color="rgb(94.499207%, 94.898987%, 94.898987%)" offset="0.5"/><stop stop-opacity="1" stop-color="rgb(94.499207%, 94.798279%, 94.798279%)" offset="0.75"/><stop stop-opacity="1" stop-color="rgb(94.499207%, 94.624329%, 94.624329%)" offset="0.8125"/><stop stop-opacity="1" stop-color="rgb(94.436646%, 94.462585%, 94.462585%)" offset="0.859375"/><stop stop-opacity="1" stop-color="rgb(94.236755%, 94.236755%, 94.236755%)" offset="0.894531"/><stop stop-opacity="1" stop-color="rgb(94.099426%, 94.099426%, 94.099426%)" offset="1"/></radialGradient><clipPath id="885ac81b33"><path d="M 70 70 L 305.46875 70 L 305.46875 305.46875 L 70 305.46875 Z M 70 70 " clip-rule="nonzero"/></clipPath><clipPath id="8c2962a769"><path d="M 187.667969 305.296875 C 122.703125 305.296875 70.035156 252.628906 70.035156 187.667969 C 70.035156 122.703125 122.703125 70.039062 187.667969 70.039062 C 252.632812 70.039062 305.292969 122.703125 305.292969 187.667969 C 305.292969 252.628906 252.632812 305.296875 187.667969 305.296875 M 187.667969 79.71875 C 128.144531 79.71875 79.71875 128.144531 79.71875 187.667969 C 79.71875 247.191406 128.144531 295.617188 187.667969 295.617188 C 247.1875 295.617188 295.613281 247.191406 295.613281 187.667969 C 295.613281 128.144531 247.1875 79.71875 187.667969 79.71875 " clip-rule="nonzero"/></clipPath><clipPath id="7aded943a3"><path d="M 187.667969 305.296875 C 122.703125 305.296875 70.035156 252.628906 70.035156 187.667969 C 70.035156 122.703125 122.703125 70.039062 187.667969 70.039062 C 252.632812 70.039062 305.292969 122.703125 305.292969 187.667969 C 305.292969 252.628906 252.632812 305.296875 187.667969 305.296875 M 187.667969 79.71875 C 128.144531 79.71875 79.71875 128.144531 79.71875 187.667969 C 79.71875 247.191406 128.144531 295.617188 187.667969 295.617188 C 247.1875 295.617188 295.613281 247.191406 295.613281 187.667969 C 295.613281 128.144531 247.1875 79.71875 187.667969 79.71875 " clip-rule="nonzero"/></clipPath><clipPath id="8539274576"><path d="M 187.664062 422.925781 L 422.925781 187.667969 L 187.664062 -47.59375 L -47.59375 187.667969 Z M 187.664062 422.925781 " clip-rule="nonzero"/></clipPath><linearGradient x1="-0.207102" gradientTransform="matrix(-166.353176, -166.353176, 166.353176, -166.353176, 270.814578, 270.873164)" y1="0" x2="1.207115" gradientUnits="userSpaceOnUse" y2="0" id="fd81bc518a"><stop stop-opacity="1" stop-color="rgb(100%, 100%, 100%)" offset="0"/><stop stop-opacity="1" stop-color="rgb(100%, 100%, 100%)" offset="0.125"/><stop stop-opacity="1" stop-color="rgb(99.996948%, 99.996948%, 99.996948%)" offset="0.15625"/><stop stop-opacity="1" stop-color="rgb(99.798584%, 99.798584%, 99.798584%)" offset="0.171875"/><stop stop-opacity="1" stop-color="rgb(99.407959%, 99.407959%, 99.407959%)" offset="0.1875"/><stop stop-opacity="1" stop-color="rgb(99.108887%, 99.108887%, 99.108887%)" offset="0.195312"/><stop stop-opacity="1" stop-color="rgb(98.901367%, 98.901367%, 98.901367%)" offset="0.203125"/><stop stop-opacity="1" stop-color="rgb(98.602295%, 98.602295%, 98.602295%)" offset="0.21875"/><stop stop-opacity="1" stop-color="rgb(98.397827%, 98.397827%, 98.397827%)" offset="0.234375"/><stop stop-opacity="1" stop-color="rgb(98.194885%, 98.194885%, 98.194885%)" offset="0.25"/><stop stop-opacity="1" stop-color="rgb(97.80426%, 97.80426%, 97.80426%)" offset="0.265625"/><stop stop-opacity="1" stop-color="rgb(97.450256%, 97.450256%, 97.450256%)" offset="0.28125"/><stop stop-opacity="1" stop-color="rgb(97.097778%, 97.097778%, 97.097778%)" offset="0.296875"/><stop stop-opacity="1" stop-color="rgb(96.707153%, 96.707153%, 96.707153%)" offset="0.3125"/><stop stop-opacity="1" stop-color="rgb(96.408081%, 96.408081%, 96.408081%)" offset="0.320312"/><stop stop-opacity="1" stop-color="rgb(96.200562%, 96.200562%, 96.200562%)" offset="0.328125"/><stop stop-opacity="1" stop-color="rgb(95.901489%, 95.901489%, 95.901489%)" offset="0.34375"/><stop stop-opacity="1" stop-color="rgb(95.698547%, 95.698547%, 95.698547%)" offset="0.359375"/><stop stop-opacity="1" stop-color="rgb(95.495605%, 95.495605%, 95.495605%)" offset="0.375"/><stop stop-opacity="1" stop-color="rgb(95.10498%, 95.10498%, 95.10498%)" offset="0.390625"/><stop stop-opacity="1" stop-color="rgb(94.804382%, 94.804382%, 94.804382%)" offset="0.398438"/><stop stop-opacity="1" stop-color="rgb(94.596863%, 94.596863%, 94.596863%)" offset="0.40625"/><stop stop-opacity="1" stop-color="rgb(94.297791%, 94.297791%, 94.297791%)" offset="0.421875"/><stop stop-opacity="1" stop-color="rgb(93.907166%, 93.907166%, 93.907166%)" offset="0.4375"/><stop stop-opacity="1" stop-color="rgb(93.608093%, 93.608093%, 93.608093%)" offset="0.445312"/><stop stop-opacity="1" stop-color="rgb(93.400574%, 93.400574%, 93.400574%)" offset="0.453125"/><stop stop-opacity="1" stop-color="rgb(93.101501%, 93.101501%, 93.101501%)" offset="0.46875"/><stop stop-opacity="1" stop-color="rgb(92.800903%, 92.800903%, 92.800903%)" offset="0.476562"/><stop stop-opacity="1" stop-color="rgb(92.597961%, 92.597961%, 92.597961%)" offset="0.484375"/><stop stop-opacity="1" stop-color="rgb(92.498779%, 92.498779%, 92.498779%)" offset="0.5"/><stop stop-opacity="1" stop-color="rgb(92.352295%, 92.352295%, 92.352295%)" offset="0.515625"/><stop stop-opacity="1" stop-color="rgb(92.103577%, 92.103577%, 92.103577%)" offset="0.523437"/><stop stop-opacity="1" stop-color="rgb(91.896057%, 91.896057%, 91.896057%)" offset="0.53125"/><stop stop-opacity="1" stop-color="rgb(91.596985%, 91.596985%, 91.596985%)" offset="0.546875"/><stop stop-opacity="1" stop-color="rgb(91.20636%, 91.20636%, 91.20636%)" offset="0.5625"/><stop stop-opacity="1" stop-color="rgb(90.907288%, 90.907288%, 90.907288%)" offset="0.570312"/><stop stop-opacity="1" stop-color="rgb(90.699768%, 90.699768%, 90.699768%)" offset="0.578125"/><stop stop-opacity="1" stop-color="rgb(90.400696%, 90.400696%, 90.400696%)" offset="0.59375"/><stop stop-opacity="1" stop-color="rgb(90.100098%, 90.100098%, 90.100098%)" offset="0.601563"/><stop stop-opacity="1" stop-color="rgb(89.892578%, 89.892578%, 89.892578%)" offset="0.609375"/><stop stop-opacity="1" stop-color="rgb(89.593506%, 89.593506%, 89.593506%)" offset="0.625"/><stop stop-opacity="1" stop-color="rgb(89.399719%, 89.399719%, 89.399719%)" offset="0.640625"/><stop stop-opacity="1" stop-color="rgb(89.299011%, 89.299011%, 89.299011%)" offset="0.648437"/><stop stop-opacity="1" stop-color="rgb(89.096069%, 89.096069%, 89.096069%)" offset="0.65625"/><stop stop-opacity="1" stop-color="rgb(88.796997%, 88.796997%, 88.796997%)" offset="0.671875"/><stop stop-opacity="1" stop-color="rgb(88.406372%, 88.406372%, 88.406372%)" offset="0.6875"/><stop stop-opacity="1" stop-color="rgb(88.1073%, 88.1073%, 88.1073%)" offset="0.695312"/><stop stop-opacity="1" stop-color="rgb(87.89978%, 87.89978%, 87.89978%)" offset="0.703125"/><stop stop-opacity="1" stop-color="rgb(87.649536%, 87.649536%, 87.649536%)" offset="0.71875"/><stop stop-opacity="1" stop-color="rgb(87.399292%, 87.399292%, 87.399292%)" offset="0.726562"/><stop stop-opacity="1" stop-color="rgb(87.193298%, 87.193298%, 87.193298%)" offset="0.734375"/><stop stop-opacity="1" stop-color="rgb(86.894226%, 86.894226%, 86.894226%)" offset="0.75"/><stop stop-opacity="1" stop-color="rgb(86.599731%, 86.599731%, 86.599731%)" offset="0.757812"/><stop stop-opacity="1" stop-color="rgb(86.404419%, 86.404419%, 86.404419%)" offset="0.765625"/><stop stop-opacity="1" stop-color="rgb(86.299133%, 86.299133%, 86.299133%)" offset="0.78125"/><stop stop-opacity="1" stop-color="rgb(86.096191%, 86.096191%, 86.096191%)" offset="0.796875"/><stop stop-opacity="1" stop-color="rgb(85.705566%, 85.705566%, 85.705566%)" offset="0.8125"/><stop stop-opacity="1" stop-color="rgb(85.406494%, 85.406494%, 85.406494%)" offset="0.820312"/><stop stop-opacity="1" stop-color="rgb(85.198975%, 85.198975%, 85.198975%)" offset="0.828125"/><stop stop-opacity="1" stop-color="rgb(84.899902%, 84.899902%, 84.899902%)" offset="0.84375"/><stop stop-opacity="1" stop-color="rgb(84.602356%, 84.602356%, 84.602356%)" offset="0.859375"/><stop stop-opacity="1" stop-color="rgb(84.399414%, 84.399414%, 84.399414%)" offset="0.875"/><stop stop-opacity="1" stop-color="rgb(84.298706%, 84.298706%, 84.298706%)" offset="1"/></linearGradient><clipPath id="f667ca9c56"><path d="M 79.621094 79.71875 L 295.613281 79.71875 L 295.613281 295.617188 L 79.621094 295.617188 Z M 79.621094 79.71875 " clip-rule="nonzero"/></clipPath><clipPath id="232bd35c23"><path d="M 187.667969 295.617188 C 128.144531 295.617188 79.71875 247.191406 79.71875 187.667969 C 79.71875 128.144531 128.144531 79.71875 187.667969 79.71875 C 247.1875 79.71875 295.613281 128.144531 295.613281 187.667969 C 295.613281 247.191406 247.1875 295.617188 187.667969 295.617188 M 188.230469 82.542969 C 144.96875 82.542969 102.472656 112.664062 89.058594 155 C 77.859375 190.335938 83.101562 226.4375 107.246094 251.359375 C 93.945312 228.4375 97.707031 200.210938 106.324219 173.015625 C 119.457031 131.5625 157.917969 105.011719 199.257812 105.011719 C 208.984375 105.011719 218.871094 106.480469 228.625 109.570312 C 244.5 114.605469 260.164062 115.605469 271.011719 126.800781 C 259.265625 106.5625 239.285156 94.289062 215.269531 86.675781 C 206.398438 83.867188 197.296875 82.542969 188.230469 82.542969 " clip-rule="nonzero"/></clipPath><clipPath id="7a9ab02b55"><path d="M 187.667969 295.617188 C 128.144531 295.617188 79.71875 247.191406 79.71875 187.667969 C 79.71875 128.144531 128.144531 79.71875 187.667969 79.71875 C 247.1875 79.71875 295.613281 128.144531 295.613281 187.667969 C 295.613281 247.191406 247.1875 295.617188 187.667969 295.617188 M 188.230469 82.542969 C 144.96875 82.542969 102.472656 112.664062 89.058594 155 C 77.859375 190.335938 83.101562 226.4375 107.246094 251.359375 C 93.945312 228.4375 97.707031 200.210938 106.324219 173.015625 C 119.457031 131.5625 157.917969 105.011719 199.257812 105.011719 C 208.984375 105.011719 218.871094 106.480469 228.625 109.570312 C 244.5 114.605469 260.164062 115.605469 271.011719 126.800781 C 259.265625 106.5625 239.285156 94.289062 215.269531 86.675781 C 206.398438 83.867188 197.296875 82.542969 188.230469 82.542969 " clip-rule="nonzero"/></clipPath><radialGradient gradientTransform="matrix(1, 0, 0, 1, 187.66554, 187.667295)" gradientUnits="userSpaceOnUse" r="107.948257" cx="0" id="8341ff66c1" cy="0" fx="0" fy="0"><stop stop-opacity="1" stop-color="rgb(94.398499%, 94.798279%, 94.798279%)" offset="0"/><stop stop-opacity="1" stop-color="rgb(94.198608%, 94.598389%, 94.598389%)" offset="0.25"/><stop stop-opacity="1" stop-color="rgb(93.998718%, 94.398499%, 94.398499%)" offset="0.625"/><stop stop-opacity="1" stop-color="rgb(93.798828%, 94.198608%, 94.198608%)" offset="0.648438"/><stop stop-opacity="1" stop-color="rgb(93.609619%, 94.009399%, 94.009399%)" offset="0.691406"/><stop stop-opacity="1" stop-color="rgb(93.409729%, 93.809509%, 93.809509%)" offset="0.726562"/><stop stop-opacity="1" stop-color="rgb(93.240356%, 93.640137%, 93.640137%)" offset="0.757812"/><stop stop-opacity="1" stop-color="rgb(93.008423%, 93.409729%, 93.440247%)" offset="0.785156"/><stop stop-opacity="1" stop-color="rgb(92.666626%, 93.067932%, 93.258667%)" offset="0.808594"/><stop stop-opacity="1" stop-color="rgb(92.463684%, 92.851257%, 93.058777%)" offset="0.832031"/><stop stop-opacity="1" stop-color="rgb(92.314148%, 92.651367%, 92.84668%)" offset="0.851562"/><stop stop-opacity="1" stop-color="rgb(92.170715%, 92.477417%, 92.625427%)" offset="0.867188"/><stop stop-opacity="1" stop-color="rgb(92.056274%, 92.391968%, 92.391968%)" offset="0.882812"/><stop stop-opacity="1" stop-color="rgb(91.784668%, 92.163086%, 92.262268%)" offset="0.894531"/><stop stop-opacity="1" stop-color="rgb(91.534424%, 91.934204%, 92.199707%)" offset="0.917969"/><stop stop-opacity="1" stop-color="rgb(91.281128%, 91.682434%, 92.047119%)" offset="0.925781"/><stop stop-opacity="1" stop-color="rgb(90.92865%, 91.32843%, 91.729736%)" offset="0.941406"/><stop stop-opacity="1" stop-color="rgb(90.686035%, 91.085815%, 91.485596%)" offset="0.96875"/><stop stop-opacity="1" stop-color="rgb(90.539551%, 90.940857%, 91.340637%)" offset="0.976562"/><stop stop-opacity="1" stop-color="rgb(90.335083%, 90.736389%, 91.136169%)" offset="0.980469"/><stop stop-opacity="1" stop-color="rgb(90.19928%, 90.59906%, 90.99884%)" offset="1"/></radialGradient><clipPath id="07726e5530"><path d="M 83.105469 82.542969 L 271.011719 82.542969 L 271.011719 251.359375 L 83.105469 251.359375 Z M 83.105469 82.542969 " clip-rule="nonzero"/></clipPath><clipPath id="5b6dc56a26"><path d="M 107.246094 251.359375 C 83.101562 226.4375 77.859375 190.335938 89.058594 155 C 102.472656 112.664062 144.96875 82.542969 188.230469 82.542969 C 197.296875 82.542969 206.398438 83.867188 215.269531 86.675781 C 239.285156 94.289062 259.265625 106.5625 271.011719 126.800781 C 260.164062 115.605469 244.5 114.605469 228.625 109.570312 C 218.871094 106.480469 208.984375 105.011719 199.257812 105.011719 C 157.917969 105.011719 119.457031 131.5625 106.324219 173.015625 C 97.707031 200.210938 93.945312 228.4375 107.246094 251.359375 " clip-rule="nonzero"/></clipPath><clipPath id="fadb1c6650"><path d="M 107.246094 251.359375 C 83.101562 226.4375 77.859375 190.335938 89.058594 155 C 102.472656 112.664062 144.96875 82.542969 188.230469 82.542969 C 197.296875 82.542969 206.398438 83.867188 215.269531 86.675781 C 239.285156 94.289062 259.265625 106.5625 271.011719 126.800781 C 260.164062 115.605469 244.5 114.605469 228.625 109.570312 C 218.871094 106.480469 208.984375 105.011719 199.257812 105.011719 C 157.917969 105.011719 119.457031 131.5625 106.324219 173.015625 C 97.707031 200.210938 93.945312 228.4375 107.246094 251.359375 " clip-rule="nonzero"/></clipPath><radialGradient gradientTransform="matrix(1, 0, 0, 1, 187.66554, 187.667295)" gradientUnits="userSpaceOnUse" r="107.948257" cx="0" id="443de0aa05" cy="0" fx="0" fy="0"><stop stop-opacity="1" stop-color="rgb(97.299194%, 97.599792%, 97.599792%)" offset="0"/><stop stop-opacity="1" stop-color="rgb(97.198486%, 97.523499%, 97.523499%)" offset="0.5"/><stop stop-opacity="1" stop-color="rgb(96.998596%, 97.273254%, 97.373962%)" offset="0.5625"/><stop stop-opacity="1" stop-color="rgb(96.798706%, 96.998596%, 97.198486%)" offset="0.671875"/><stop stop-opacity="1" stop-color="rgb(96.598816%, 96.806335%, 96.998596%)" offset="0.753906"/><stop stop-opacity="1" stop-color="rgb(96.400452%, 96.606445%, 96.800232%)" offset="0.8125"/><stop stop-opacity="1" stop-color="rgb(96.200562%, 96.383667%, 96.600342%)" offset="0.859375"/><stop stop-opacity="1" stop-color="rgb(95.999146%, 96.084595%, 96.398926%)" offset="0.894531"/><stop stop-opacity="1" stop-color="rgb(95.756531%, 95.756531%, 96.156311%)" offset="0.917969"/><stop stop-opacity="1" stop-color="rgb(95.455933%, 95.455933%, 95.855713%)" offset="0.9375"/><stop stop-opacity="1" stop-color="rgb(95.298767%, 95.298767%, 95.698547%)" offset="1"/></radialGradient></defs><rect x="-37.5" width="450" fill="#ffffff" y="-37.499999" height="449.999989" fill-opacity="1"/><rect x="-37.5" width="450" fill="#ffffff" y="-37.499999" height="449.999989" fill-opacity="1"/><rect x="-37.5" width="450" fill="#ffffff" y="-37.499999" height="449.999989" fill-opacity="1"/><g clip-path="url(#b6bf7b9969)"><path fill="#db6262" d="M 187.667969 347.410156 C 99.582031 347.410156 27.921875 275.75 27.921875 187.667969 C 27.921875 99.585938 99.582031 27.925781 187.667969 27.925781 C 275.75 27.925781 347.410156 99.585938 347.410156 187.667969 C 347.410156 275.75 275.75 347.410156 187.667969 347.410156 " fill-opacity="1" fill-rule="nonzero"/></g><g clip-path="url(#211bb46927)"><g clip-path="url(#a9f26df39f)"><g clip-path="url(#65771dd58b)"><path fill="url(#498ca1fbc7)" d="M 30.34375 30.34375 L 30.34375 344.992188 L 344.992188 344.992188 L 344.992188 30.34375 Z M 30.34375 30.34375 " fill-rule="nonzero"/></g></g></g><g clip-path="url(#885ac81b33)"><g clip-path="url(#8c2962a769)"><g clip-path="url(#7aded943a3)"><g clip-path="url(#8539274576)"><path fill="url(#fd81bc518a)" d="M 187.664062 422.925781 L 422.925781 187.667969 L 187.664062 -47.59375 L -47.59375 187.667969 Z M 187.664062 422.925781 " fill-rule="nonzero"/></g></g></g></g><g clip-path="url(#f667ca9c56)"><g clip-path="url(#232bd35c23)"><g clip-path="url(#7a9ab02b55)"><path fill="url(#8341ff66c1)" d="M 79.621094 79.71875 L 79.621094 295.617188 L 295.613281 295.617188 L 295.613281 79.71875 Z M 79.621094 79.71875 " fill-rule="nonzero"/></g></g></g><g clip-path="url(#07726e5530)"><g clip-path="url(#5b6dc56a26)"><g clip-path="url(#fadb1c6650)"><path fill="url(#443de0aa05)" d="M 83.105469 82.542969 L 83.105469 251.359375 L 271.011719 251.359375 L 271.011719 82.542969 Z M 83.105469 82.542969 " fill-rule="nonzero"/></g></g></g><g fill="#a6a6a6" fill-opacity="0.302"><g transform="translate(31.914683, 215.866886)"><g><path d="M 101.03125 -131.722656 L 43.421875 -121.695312 C 35.976562 -120.398438 33.613281 -115.410156 34.339844 -111.230469 C 35.023438 -107.3125 38.558594 -104.023438 43.261719 -104.839844 L 51.097656 -106.207031 L 46.789062 -83.785156 L 40.78125 -82.742188 C 33.726562 -81.511719 31.082031 -76.609375 31.808594 -72.429688 C 32.511719 -68.378906 36.332031 -65.007812 42.601562 -66.097656 L 43.90625 -66.324219 L 39.382812 -40.503906 C 37.082031 -27.449219 32.265625 -24.191406 25.472656 -23.007812 C 20.769531 -22.1875 16.957031 -24.753906 15.234375 -27.6875 C 15.335938 -28.644531 15.308594 -29.582031 15.148438 -30.496094 C 14.105469 -36.507812 8.109375 -39.234375 3.015625 -38.347656 C -2.210938 -37.4375 -6.796875 -32.867188 -5.34375 -24.507812 C -3.183594 -12.097656 11.367188 -1.976562 28.480469 -4.957031 C 41.933594 -7.300781 54.058594 -15.734375 57.867188 -37.933594 C 59.410156 -47.625 61.675781 -60.132812 63.347656 -69.84375 L 71.1875 -71.207031 C 79.15625 -72.597656 81.496094 -77.714844 80.746094 -82.023438 C 80.085938 -85.8125 76.96875 -89.039062 73.046875 -88.355469 L 66.253906 -87.175781 L 69.910156 -109.480469 L 100.609375 -114.824219 C 107.878906 -116.359375 110.285156 -121.085938 109.558594 -125.265625 C 108.878906 -129.183594 105.472656 -132.496094 101.03125 -131.722656 Z M 101.03125 -131.722656 "/></g></g></g><g fill="#a6a6a6" fill-opacity="0.302"><g transform="translate(118.916536, 200.722787)"><g><path d="M 50.507812 -36.921875 C 50.527344 -36.789062 50.164062 -38.882812 49.210938 -41.273438 C 50.011719 -42.085938 50.742188 -43.289062 51.324219 -44.601562 C 52.976562 -48.253906 54.917969 -60.300781 54.007812 -65.527344 C 51.6875 -78.851562 39.167969 -85.824219 25.058594 -83.367188 C 12.777344 -81.230469 2.335938 -72.414062 0.179688 -60.058594 L -4.671875 -31.488281 C -5.28125 -28.019531 -5.234375 -24.660156 -4.734375 -21.789062 C -2.347656 -8.070312 10.84375 -1.886719 24.167969 -4.207031 C 34.355469 -5.980469 43.0625 -10.859375 46.914062 -21.222656 C 49.378906 -20.976562 52.191406 -21.0625 54.933594 -21.539062 C 70.347656 -24.222656 80.585938 -37.3125 82.640625 -51.800781 C 82.78125 -53.308594 82.816406 -54.660156 82.613281 -55.835938 C 81.769531 -60.667969 77.765625 -62.796875 73.976562 -62.136719 C 70.449219 -61.523438 67.15625 -58.796875 66.5625 -53.714844 C 65.097656 -45.113281 60.066406 -38.449219 52.359375 -37.109375 C 51.835938 -37.019531 51.050781 -36.882812 50.507812 -36.921875 Z M 34.855469 -54.925781 C 34.667969 -53.679688 34.457031 -52.566406 34.507812 -51.5 C 27.1875 -51.03125 21.808594 -44.039062 23.175781 -36.203125 C 24.078125 -31.78125 26.707031 -29.816406 29.554688 -28.160156 C 28.652344 -23.292969 25.25 -20.410156 21.199219 -19.707031 C 16.105469 -18.820312 14.253906 -21.726562 13.707031 -24.863281 C 13.277344 -27.34375 13.519531 -29.808594 13.816406 -31.207031 L 18.472656 -59.339844 C 19.289062 -63.925781 23.429688 -67.203125 27.480469 -67.90625 C 31.53125 -68.613281 34.621094 -66.324219 35.144531 -63.320312 C 35.554688 -60.96875 35.292969 -57.828125 34.855469 -54.925781 Z M 34.855469 -54.925781 "/></g></g></g><g fill="#a6a6a6" fill-opacity="0.302"><g transform="translate(187.107178, 188.853087)"><g><path d="M 50.507812 -36.921875 C 50.527344 -36.789062 50.164062 -38.882812 49.210938 -41.273438 C 50.011719 -42.085938 50.742188 -43.289062 51.324219 -44.601562 C 52.976562 -48.253906 54.917969 -60.300781 54.007812 -65.527344 C 51.6875 -78.851562 39.167969 -85.824219 25.058594 -83.367188 C 12.777344 -81.230469 2.335938 -72.414062 0.179688 -60.058594 L -4.671875 -31.488281 C -5.28125 -28.019531 -5.234375 -24.660156 -4.734375 -21.789062 C -2.347656 -8.070312 10.84375 -1.886719 24.167969 -4.207031 C 34.355469 -5.980469 43.0625 -10.859375 46.914062 -21.222656 C 49.378906 -20.976562 52.191406 -21.0625 54.933594 -21.539062 C 70.347656 -24.222656 80.585938 -37.3125 82.640625 -51.800781 C 82.78125 -53.308594 82.816406 -54.660156 82.613281 -55.835938 C 81.769531 -60.667969 77.765625 -62.796875 73.976562 -62.136719 C 70.449219 -61.523438 67.15625 -58.796875 66.5625 -53.714844 C 65.097656 -45.113281 60.066406 -38.449219 52.359375 -37.109375 C 51.835938 -37.019531 51.050781 -36.882812 50.507812 -36.921875 Z M 34.855469 -54.925781 C 34.667969 -53.679688 34.457031 -52.566406 34.507812 -51.5 C 27.1875 -51.03125 21.808594 -44.039062 23.175781 -36.203125 C 24.078125 -31.78125 26.707031 -29.816406 29.554688 -28.160156 C 28.652344 -23.292969 25.25 -20.410156 21.199219 -19.707031 C 16.105469 -18.820312 14.253906 -21.726562 13.707031 -24.863281 C 13.277344 -27.34375 13.519531 -29.808594 13.816406 -31.207031 L 18.472656 -59.339844 C 19.289062 -63.925781 23.429688 -67.203125 27.480469 -67.90625 C 31.53125 -68.613281 34.621094 -66.324219 35.144531 -63.320312 C 35.554688 -60.96875 35.292969 -57.828125 34.855469 -54.925781 Z M 34.855469 -54.925781 "/></g></g></g><g fill="#a6a6a6" fill-opacity="0.302"><g transform="translate(255.297832, 176.983385)"><g><path d="M 75.445312 -58.355469 C 71.917969 -57.742188 68.578125 -55.277344 68.128906 -50.890625 C 64.980469 -34.191406 59.085938 -26.300781 53.207031 -25.277344 C 50.59375 -24.824219 48.839844 -26.402344 48.472656 -28.492188 C 48.335938 -29.277344 48.332031 -30.082031 48.582031 -31.742188 L 61.839844 -113.324219 C 62.085938 -114.984375 62.355469 -117.316406 62.105469 -118.753906 C 61.125 -124.371094 56.03125 -126.582031 51.457031 -125.785156 C 47.410156 -125.078125 44.144531 -121.414062 42.976562 -114.214844 L 36.953125 -78.441406 C 32.285156 -82.070312 26.105469 -83.550781 19.964844 -82.480469 C 11.472656 -81.003906 3.148438 -74.707031 1.347656 -64.167969 L -4.921875 -26.734375 C -5.40625 -24.09375 -5.34375 -21.414062 -4.933594 -19.0625 C -2.933594 -7.566406 7.707031 -1.339844 18.941406 -3.296875 C 25.082031 -4.367188 31.511719 -7.636719 35.851562 -13.644531 C 40.671875 -9.90625 47.421875 -8.253906 53.953125 -9.390625 C 66.886719 -11.640625 80.164062 -23.511719 84.460938 -50.636719 C 84.5625 -51.597656 84.664062 -52.558594 84.527344 -53.339844 C 83.820312 -57.390625 79.492188 -59.0625 75.445312 -58.355469 Z M 18.3125 -23.914062 C 15.71875 -24.136719 14.722656 -25.980469 14.359375 -28.074219 C 14.066406 -29.769531 14.183594 -31.40625 14.371094 -32.652344 L 18.019531 -55.761719 C 19.289062 -63.925781 22.589844 -65.84375 24.679688 -66.210938 C 27.164062 -66.640625 30.339844 -64.636719 31.113281 -60.195312 C 31.453125 -58.234375 31.492188 -55.683594 30.886719 -52.214844 L 28.144531 -36.257812 C 25.90625 -25.910156 20.886719 -23.824219 18.3125 -23.914062 Z M 18.3125 -23.914062 "/></g></g></g><g fill="#a6a6a6" fill-opacity="0.502"><g transform="translate(25.718958, 208.955403)"><g><path d="M 101.03125 -131.722656 L 43.421875 -121.695312 C 35.976562 -120.398438 33.613281 -115.410156 34.339844 -111.230469 C 35.023438 -107.3125 38.558594 -104.023438 43.261719 -104.839844 L 51.097656 -106.207031 L 46.789062 -83.785156 L 40.78125 -82.742188 C 33.726562 -81.511719 31.082031 -76.609375 31.808594 -72.429688 C 32.511719 -68.378906 36.332031 -65.007812 42.601562 -66.097656 L 43.90625 -66.324219 L 39.382812 -40.503906 C 37.082031 -27.449219 32.265625 -24.191406 25.472656 -23.007812 C 20.769531 -22.1875 16.957031 -24.753906 15.234375 -27.6875 C 15.335938 -28.644531 15.308594 -29.582031 15.148438 -30.496094 C 14.105469 -36.507812 8.109375 -39.234375 3.015625 -38.347656 C -2.210938 -37.4375 -6.796875 -32.867188 -5.34375 -24.507812 C -3.183594 -12.097656 11.367188 -1.976562 28.480469 -4.957031 C 41.933594 -7.300781 54.058594 -15.734375 57.867188 -37.933594 C 59.410156 -47.625 61.675781 -60.132812 63.347656 -69.84375 L 71.1875 -71.207031 C 79.15625 -72.597656 81.496094 -77.714844 80.746094 -82.023438 C 80.085938 -85.8125 76.96875 -89.039062 73.046875 -88.355469 L 66.253906 -87.175781 L 69.910156 -109.480469 L 100.609375 -114.824219 C 107.878906 -116.359375 110.285156 -121.085938 109.558594 -125.265625 C 108.878906 -129.183594 105.472656 -132.496094 101.03125 -131.722656 Z M 101.03125 -131.722656 "/></g></g></g><g fill="#a6a6a6" fill-opacity="0.502"><g transform="translate(112.720811, 193.811303)"><g><path d="M 50.507812 -36.921875 C 50.527344 -36.789062 50.164062 -38.882812 49.210938 -41.273438 C 50.011719 -42.085938 50.742188 -43.289062 51.324219 -44.601562 C 52.976562 -48.253906 54.917969 -60.300781 54.007812 -65.527344 C 51.6875 -78.851562 39.167969 -85.824219 25.058594 -83.367188 C 12.777344 -81.230469 2.335938 -72.414062 0.179688 -60.058594 L -4.671875 -31.488281 C -5.28125 -28.019531 -5.234375 -24.660156 -4.734375 -21.789062 C -2.347656 -8.070312 10.84375 -1.886719 24.167969 -4.207031 C 34.355469 -5.980469 43.0625 -10.859375 46.914062 -21.222656 C 49.378906 -20.976562 52.191406 -21.0625 54.933594 -21.539062 C 70.347656 -24.222656 80.585938 -37.3125 82.640625 -51.800781 C 82.78125 -53.308594 82.816406 -54.660156 82.613281 -55.835938 C 81.769531 -60.667969 77.765625 -62.796875 73.976562 -62.136719 C 70.449219 -61.523438 67.15625 -58.796875 66.5625 -53.714844 C 65.097656 -45.113281 60.066406 -38.449219 52.359375 -37.109375 C 51.835938 -37.019531 51.050781 -36.882812 50.507812 -36.921875 Z M 34.855469 -54.925781 C 34.667969 -53.679688 34.457031 -52.566406 34.507812 -51.5 C 27.1875 -51.03125 21.808594 -44.039062 23.175781 -36.203125 C 24.078125 -31.78125 26.707031 -29.816406 29.554688 -28.160156 C 28.652344 -23.292969 25.25 -20.410156 21.199219 -19.707031 C 16.105469 -18.820312 14.253906 -21.726562 13.707031 -24.863281 C 13.277344 -27.34375 13.519531 -29.808594 13.816406 -31.207031 L 18.472656 -59.339844 C 19.289062 -63.925781 23.429688 -67.203125 27.480469 -67.90625 C 31.53125 -68.613281 34.621094 -66.324219 35.144531 -63.320312 C 35.554688 -60.96875 35.292969 -57.828125 34.855469 -54.925781 Z M 34.855469 -54.925781 "/></g></g></g><g fill="#a6a6a6" fill-opacity="0.502"><g transform="translate(180.911453, 181.941603)"><g><path d="M 50.507812 -36.921875 C 50.527344 -36.789062 50.164062 -38.882812 49.210938 -41.273438 C 50.011719 -42.085938 50.742188 -43.289062 51.324219 -44.601562 C 52.976562 -48.253906 54.917969 -60.300781 54.007812 -65.527344 C 51.6875 -78.851562 39.167969 -85.824219 25.058594 -83.367188 C 12.777344 -81.230469 2.335938 -72.414062 0.179688 -60.058594 L -4.671875 -31.488281 C -5.28125 -28.019531 -5.234375 -24.660156 -4.734375 -21.789062 C -2.347656 -8.070312 10.84375 -1.886719 24.167969 -4.207031 C 34.355469 -5.980469 43.0625 -10.859375 46.914062 -21.222656 C 49.378906 -20.976562 52.191406 -21.0625 54.933594 -21.539062 C 70.347656 -24.222656 80.585938 -37.3125 82.640625 -51.800781 C 82.78125 -53.308594 82.816406 -54.660156 82.613281 -55.835938 C 81.769531 -60.667969 77.765625 -62.796875 73.976562 -62.136719 C 70.449219 -61.523438 67.15625 -58.796875 66.5625 -53.714844 C 65.097656 -45.113281 60.066406 -38.449219 52.359375 -37.109375 C 51.835938 -37.019531 51.050781 -36.882812 50.507812 -36.921875 Z M 34.855469 -54.925781 C 34.667969 -53.679688 34.457031 -52.566406 34.507812 -51.5 C 27.1875 -51.03125 21.808594 -44.039062 23.175781 -36.203125 C 24.078125 -31.78125 26.707031 -29.816406 29.554688 -28.160156 C 28.652344 -23.292969 25.25 -20.410156 21.199219 -19.707031 C 16.105469 -18.820312 14.253906 -21.726562 13.707031 -24.863281 C 13.277344 -27.34375 13.519531 -29.808594 13.816406 -31.207031 L 18.472656 -59.339844 C 19.289062 -63.925781 23.429688 -67.203125 27.480469 -67.90625 C 31.53125 -68.613281 34.621094 -66.324219 35.144531 -63.320312 C 35.554688 -60.96875 35.292969 -57.828125 34.855469 -54.925781 Z M 34.855469 -54.925781 "/></g></g></g><g fill="#a6a6a6" fill-opacity="0.502"><g transform="translate(249.102106, 170.071901)"><g><path d="M 75.445312 -58.355469 C 71.917969 -57.742188 68.578125 -55.277344 68.128906 -50.890625 C 64.980469 -34.191406 59.085938 -26.300781 53.207031 -25.277344 C 50.59375 -24.824219 48.839844 -26.402344 48.472656 -28.492188 C 48.335938 -29.277344 48.332031 -30.082031 48.582031 -31.742188 L 61.839844 -113.324219 C 62.085938 -114.984375 62.355469 -117.316406 62.105469 -118.753906 C 61.125 -124.371094 56.03125 -126.582031 51.457031 -125.785156 C 47.410156 -125.078125 44.144531 -121.414062 42.976562 -114.214844 L 36.953125 -78.441406 C 32.285156 -82.070312 26.105469 -83.550781 19.964844 -82.480469 C 11.472656 -81.003906 3.148438 -74.707031 1.347656 -64.167969 L -4.921875 -26.734375 C -5.40625 -24.09375 -5.34375 -21.414062 -4.933594 -19.0625 C -2.933594 -7.566406 7.707031 -1.339844 18.941406 -3.296875 C 25.082031 -4.367188 31.511719 -7.636719 35.851562 -13.644531 C 40.671875 -9.90625 47.421875 -8.253906 53.953125 -9.390625 C 66.886719 -11.640625 80.164062 -23.511719 84.460938 -50.636719 C 84.5625 -51.597656 84.664062 -52.558594 84.527344 -53.339844 C 83.820312 -57.390625 79.492188 -59.0625 75.445312 -58.355469 Z M 18.3125 -23.914062 C 15.71875 -24.136719 14.722656 -25.980469 14.359375 -28.074219 C 14.066406 -29.769531 14.183594 -31.40625 14.371094 -32.652344 L 18.019531 -55.761719 C 19.289062 -63.925781 22.589844 -65.84375 24.679688 -66.210938 C 27.164062 -66.640625 30.339844 -64.636719 31.113281 -60.195312 C 31.453125 -58.234375 31.492188 -55.683594 30.886719 -52.214844 L 28.144531 -36.257812 C 25.90625 -25.910156 20.886719 -23.824219 18.3125 -23.914062 Z M 18.3125 -23.914062 "/></g></g></g><g fill="#737373" fill-opacity="1"><g transform="translate(19.523231, 202.043934)"><g><path d="M 101.03125 -131.722656 L 43.421875 -121.695312 C 35.976562 -120.398438 33.613281 -115.410156 34.339844 -111.230469 C 35.023438 -107.3125 38.558594 -104.023438 43.261719 -104.839844 L 51.097656 -106.207031 L 46.789062 -83.785156 L 40.78125 -82.742188 C 33.726562 -81.511719 31.082031 -76.609375 31.808594 -72.429688 C 32.511719 -68.378906 36.332031 -65.007812 42.601562 -66.097656 L 43.90625 -66.324219 L 39.382812 -40.503906 C 37.082031 -27.449219 32.265625 -24.191406 25.472656 -23.007812 C 20.769531 -22.1875 16.957031 -24.753906 15.234375 -27.6875 C 15.335938 -28.644531 15.308594 -29.582031 15.148438 -30.496094 C 14.105469 -36.507812 8.109375 -39.234375 3.015625 -38.347656 C -2.210938 -37.4375 -6.796875 -32.867188 -5.34375 -24.507812 C -3.183594 -12.097656 11.367188 -1.976562 28.480469 -4.957031 C 41.933594 -7.300781 54.058594 -15.734375 57.867188 -37.933594 C 59.410156 -47.625 61.675781 -60.132812 63.347656 -69.84375 L 71.1875 -71.207031 C 79.15625 -72.597656 81.496094 -77.714844 80.746094 -82.023438 C 80.085938 -85.8125 76.96875 -89.039062 73.046875 -88.355469 L 66.253906 -87.175781 L 69.910156 -109.480469 L 100.609375 -114.824219 C 107.878906 -116.359375 110.285156 -121.085938 109.558594 -125.265625 C 108.878906 -129.183594 105.472656 -132.496094 101.03125 -131.722656 Z M 101.03125 -131.722656 "/></g></g></g><g fill="#737373" fill-opacity="1"><g transform="translate(106.525084, 186.899834)"><g><path d="M 50.507812 -36.921875 C 50.527344 -36.789062 50.164062 -38.882812 49.210938 -41.273438 C 50.011719 -42.085938 50.742188 -43.289062 51.324219 -44.601562 C 52.976562 -48.253906 54.917969 -60.300781 54.007812 -65.527344 C 51.6875 -78.851562 39.167969 -85.824219 25.058594 -83.367188 C 12.777344 -81.230469 2.335938 -72.414062 0.179688 -60.058594 L -4.671875 -31.488281 C -5.28125 -28.019531 -5.234375 -24.660156 -4.734375 -21.789062 C -2.347656 -8.070312 10.84375 -1.886719 24.167969 -4.207031 C 34.355469 -5.980469 43.0625 -10.859375 46.914062 -21.222656 C 49.378906 -20.976562 52.191406 -21.0625 54.933594 -21.539062 C 70.347656 -24.222656 80.585938 -37.3125 82.640625 -51.800781 C 82.78125 -53.308594 82.816406 -54.660156 82.613281 -55.835938 C 81.769531 -60.667969 77.765625 -62.796875 73.976562 -62.136719 C 70.449219 -61.523438 67.15625 -58.796875 66.5625 -53.714844 C 65.097656 -45.113281 60.066406 -38.449219 52.359375 -37.109375 C 51.835938 -37.019531 51.050781 -36.882812 50.507812 -36.921875 Z M 34.855469 -54.925781 C 34.667969 -53.679688 34.457031 -52.566406 34.507812 -51.5 C 27.1875 -51.03125 21.808594 -44.039062 23.175781 -36.203125 C 24.078125 -31.78125 26.707031 -29.816406 29.554688 -28.160156 C 28.652344 -23.292969 25.25 -20.410156 21.199219 -19.707031 C 16.105469 -18.820312 14.253906 -21.726562 13.707031 -24.863281 C 13.277344 -27.34375 13.519531 -29.808594 13.816406 -31.207031 L 18.472656 -59.339844 C 19.289062 -63.925781 23.429688 -67.203125 27.480469 -67.90625 C 31.53125 -68.613281 34.621094 -66.324219 35.144531 -63.320312 C 35.554688 -60.96875 35.292969 -57.828125 34.855469 -54.925781 Z M 34.855469 -54.925781 "/></g></g></g><g fill="#737373" fill-opacity="1"><g transform="translate(174.715726, 175.030134)"><g><path d="M 50.507812 -36.921875 C 50.527344 -36.789062 50.164062 -38.882812 49.210938 -41.273438 C 50.011719 -42.085938 50.742188 -43.289062 51.324219 -44.601562 C 52.976562 -48.253906 54.917969 -60.300781 54.007812 -65.527344 C 51.6875 -78.851562 39.167969 -85.824219 25.058594 -83.367188 C 12.777344 -81.230469 2.335938 -72.414062 0.179688 -60.058594 L -4.671875 -31.488281 C -5.28125 -28.019531 -5.234375 -24.660156 -4.734375 -21.789062 C -2.347656 -8.070312 10.84375 -1.886719 24.167969 -4.207031 C 34.355469 -5.980469 43.0625 -10.859375 46.914062 -21.222656 C 49.378906 -20.976562 52.191406 -21.0625 54.933594 -21.539062 C 70.347656 -24.222656 80.585938 -37.3125 82.640625 -51.800781 C 82.78125 -53.308594 82.816406 -54.660156 82.613281 -55.835938 C 81.769531 -60.667969 77.765625 -62.796875 73.976562 -62.136719 C 70.449219 -61.523438 67.15625 -58.796875 66.5625 -53.714844 C 65.097656 -45.113281 60.066406 -38.449219 52.359375 -37.109375 C 51.835938 -37.019531 51.050781 -36.882812 50.507812 -36.921875 Z M 34.855469 -54.925781 C 34.667969 -53.679688 34.457031 -52.566406 34.507812 -51.5 C 27.1875 -51.03125 21.808594 -44.039062 23.175781 -36.203125 C 24.078125 -31.78125 26.707031 -29.816406 29.554688 -28.160156 C 28.652344 -23.292969 25.25 -20.410156 21.199219 -19.707031 C 16.105469 -18.820312 14.253906 -21.726562 13.707031 -24.863281 C 13.277344 -27.34375 13.519531 -29.808594 13.816406 -31.207031 L 18.472656 -59.339844 C 19.289062 -63.925781 23.429688 -67.203125 27.480469 -67.90625 C 31.53125 -68.613281 34.621094 -66.324219 35.144531 -63.320312 C 35.554688 -60.96875 35.292969 -57.828125 34.855469 -54.925781 Z M 34.855469 -54.925781 "/></g></g></g><g fill="#737373" fill-opacity="1"><g transform="translate(242.90638, 163.160432)"><g><path d="M 75.445312 -58.355469 C 71.917969 -57.742188 68.578125 -55.277344 68.128906 -50.890625 C 64.980469 -34.191406 59.085938 -26.300781 53.207031 -25.277344 C 50.59375 -24.824219 48.839844 -26.402344 48.472656 -28.492188 C 48.335938 -29.277344 48.332031 -30.082031 48.582031 -31.742188 L 61.839844 -113.324219 C 62.085938 -114.984375 62.355469 -117.316406 62.105469 -118.753906 C 61.125 -124.371094 56.03125 -126.582031 51.457031 -125.785156 C 47.410156 -125.078125 44.144531 -121.414062 42.976562 -114.214844 L 36.953125 -78.441406 C 32.285156 -82.070312 26.105469 -83.550781 19.964844 -82.480469 C 11.472656 -81.003906 3.148438 -74.707031 1.347656 -64.167969 L -4.921875 -26.734375 C -5.40625 -24.09375 -5.34375 -21.414062 -4.933594 -19.0625 C -2.933594 -7.566406 7.707031 -1.339844 18.941406 -3.296875 C 25.082031 -4.367188 31.511719 -7.636719 35.851562 -13.644531 C 40.671875 -9.90625 47.421875 -8.253906 53.953125 -9.390625 C 66.886719 -11.640625 80.164062 -23.511719 84.460938 -50.636719 C 84.5625 -51.597656 84.664062 -52.558594 84.527344 -53.339844 C 83.820312 -57.390625 79.492188 -59.0625 75.445312 -58.355469 Z M 18.3125 -23.914062 C 15.71875 -24.136719 14.722656 -25.980469 14.359375 -28.074219 C 14.066406 -29.769531 14.183594 -31.40625 14.371094 -32.652344 L 18.019531 -55.761719 C 19.289062 -63.925781 22.589844 -65.84375 24.679688 -66.210938 C 27.164062 -66.640625 30.339844 -64.636719 31.113281 -60.195312 C 31.453125 -58.234375 31.492188 -55.683594 30.886719 -52.214844 L 28.144531 -36.257812 C 25.90625 -25.910156 20.886719 -23.824219 18.3125 -23.914062 Z M 18.3125 -23.914062 "/></g></g></g><g fill="#a6a6a6" fill-opacity="0.302"><g transform="translate(74.127454, 332.977743)"><g><path d="M 41.703125 -113.964844 C 38.308594 -113.453125 34.054688 -112.066406 31.351562 -109.425781 C 30.503906 -113.390625 26.097656 -115.453125 21.734375 -114.792969 C 17.367188 -114.132812 13.246094 -111.03125 11.980469 -104.636719 L -5.421875 -12.082031 C -5.6875 -10.550781 -5.847656 -9.164062 -5.667969 -7.949219 C -4.859375 -2.613281 0.121094 -0.0195312 4.972656 -0.75 C 8.972656 -1.355469 12.851562 -4.421875 13.933594 -10.414062 L 18.449219 -35.53125 C 23.296875 -32.171875 29.867188 -30.558594 36.65625 -31.585938 C 48.542969 -33.378906 60.296875 -42.597656 63.429688 -58.824219 L 68.945312 -87.195312 C 69.578125 -90.390625 69.707031 -93.636719 69.304688 -96.304688 C 67.199219 -110.25 55.042969 -115.980469 41.703125 -113.964844 Z M 48.902344 -83.546875 L 44.785156 -60.722656 C 43.640625 -54.347656 39.507812 -50.496094 34.777344 -49.78125 C 29.441406 -48.976562 24.472656 -52.320312 23.648438 -57.777344 C 23.5 -58.746094 23.511719 -59.492188 23.730469 -60.519531 L 28.378906 -86.398438 C 29.675781 -93.417969 34.300781 -96.472656 39.148438 -97.207031 C 44 -97.9375 48.117188 -95.335938 48.996094 -89.515625 C 49.234375 -87.9375 49.285156 -85.960938 48.902344 -83.546875 Z M 48.902344 -83.546875 "/></g></g></g><g fill="#a6a6a6" fill-opacity="0.302"><g transform="translate(144.337676, 322.372777)"><g><path d="M 47.46875 -33.09375 C 47.488281 -32.972656 47.195312 -34.914062 46.363281 -37.144531 C 47.117188 -37.878906 47.820312 -38.976562 48.382812 -40.179688 C 49.988281 -43.523438 52.03125 -54.621094 51.300781 -59.472656 C 49.429688 -71.84375 38 -78.550781 24.902344 -76.570312 C 13.5 -74.851562 3.660156 -66.914062 1.410156 -55.535156 L -3.667969 -29.214844 C -4.300781 -26.019531 -4.328125 -22.914062 -3.925781 -20.246094 C -2.003906 -7.511719 10.066406 -1.519531 22.433594 -3.390625 C 31.894531 -4.816406 40.046875 -9.148438 43.820312 -18.652344 C 46.097656 -18.375 48.699219 -18.394531 51.246094 -18.78125 C 65.554688 -20.941406 75.292969 -32.832031 77.492188 -46.1875 C 77.65625 -47.578125 77.714844 -48.828125 77.550781 -49.917969 C 76.871094 -54.40625 73.214844 -56.457031 69.695312 -55.925781 C 66.421875 -55.429688 63.320312 -52.976562 62.664062 -48.289062 C 61.132812 -40.367188 56.339844 -34.308594 49.1875 -33.230469 C 48.699219 -33.15625 47.972656 -33.046875 47.46875 -33.09375 Z M 33.371094 -50.066406 C 33.171875 -48.921875 32.953125 -47.894531 32.980469 -46.90625 C 26.199219 -46.625 21.082031 -40.273438 22.179688 -32.996094 C 22.925781 -28.890625 25.316406 -27.019531 27.914062 -25.425781 C 26.976562 -20.945312 23.773438 -18.351562 20.011719 -17.785156 C 15.285156 -17.070312 13.632812 -19.796875 13.191406 -22.707031 C 12.84375 -25.011719 13.121094 -27.285156 13.421875 -28.570312 L 18.3125 -54.492188 C 19.164062 -58.710938 23.0625 -61.65625 26.820312 -62.226562 C 30.578125 -62.792969 33.390625 -60.613281 33.8125 -57.824219 C 34.140625 -55.640625 33.835938 -52.742188 33.371094 -50.066406 Z M 33.371094 -50.066406 "/></g></g></g><g fill="#a6a6a6" fill-opacity="0.302"><g transform="translate(207.63602, 312.811821)"><g><path d="M 20.183594 -87.269531 C 25.640625 -88.09375 29.449219 -93.261719 28.609375 -98.839844 C 27.785156 -104.296875 22.636719 -107.984375 17.179688 -107.160156 C 11.722656 -106.335938 7.894531 -101.292969 8.71875 -95.835938 C 9.5625 -90.257812 14.726562 -86.445312 20.183594 -87.269531 Z M 13.15625 -22.949219 L 20.742188 -63.042969 C 20.988281 -64.695312 21.339844 -66.484375 21.15625 -67.695312 C 20.351562 -73.03125 15.925781 -75.214844 11.804688 -74.59375 C 8.042969 -74.027344 4.445312 -70.753906 3.367188 -64.761719 C 1.207031 -52.773438 -1.707031 -37.574219 -3.882812 -25.710938 C -4.246094 -23.175781 -4.71875 -19.753906 -4.410156 -17.691406 C -2.6875 -6.292969 7.761719 -1.171875 18.917969 -2.859375 C 30.804688 -4.652344 42.800781 -13.90625 47.5 -40.292969 C 47.632812 -41.058594 47.644531 -41.804688 47.53125 -42.53125 C 46.964844 -46.289062 42.980469 -48.042969 39.339844 -47.496094 C 36.066406 -47 33.046875 -44.808594 32.160156 -40.828125 C 28.84375 -24.203125 23.167969 -18.257812 18.316406 -17.527344 C 15.527344 -17.105469 13.433594 -18.648438 13.085938 -20.953125 C 12.992188 -21.5625 13.023438 -22.183594 13.15625 -22.949219 Z M 13.15625 -22.949219 "/></g></g></g><g fill="#a6a6a6" fill-opacity="0.302"><g transform="translate(241.104107, 307.756604)"><g><path d="M 62.394531 -45.148438 C 59.257812 -29.789062 53.484375 -22.839844 47.785156 -21.976562 C 45.601562 -21.648438 44.222656 -22.558594 43.914062 -24.617188 C 43.785156 -25.46875 43.878906 -26.472656 44.0625 -27.742188 L 49.453125 -56.09375 C 49.9375 -58.648438 50.089844 -60.902344 49.78125 -62.964844 C 48.316406 -72.667969 38.96875 -78.695312 29.265625 -77.230469 C 24.539062 -76.515625 20.941406 -74.859375 18.136719 -72.078125 C 17.082031 -74.148438 13.867188 -74.90625 10.589844 -74.410156 C 7.195312 -73.898438 4.160156 -71.828125 3.460938 -68.246094 L -8.238281 -8.554688 C -8.4375 -7.410156 -8.410156 -6.417969 -8.265625 -5.449219 C -7.585938 -0.960938 -3.722656 0.808594 0.15625 0.222656 C 4.402344 -0.417969 8.851562 -3.816406 9.84375 -9.550781 C 12.3125 -21.953125 15.625 -39.449219 17.988281 -51.710938 C 20.347656 -58.269531 24.152344 -61.824219 27.546875 -62.335938 C 29.730469 -62.664062 31.527344 -61.449219 31.875 -59.144531 C 32.003906 -58.292969 31.925781 -57.167969 31.726562 -56.019531 L 26.648438 -29.699219 C 26.097656 -26.765625 25.894531 -24.003906 26.28125 -21.457031 C 27.964844 -10.300781 38.078125 -5.75 48.386719 -7.308594 C 60.757812 -9.175781 72.710938 -19.542969 77.507812 -44.453125 C 77.726562 -45.480469 77.820312 -46.484375 77.691406 -47.335938 C 77.105469 -51.214844 73.277344 -52.746094 69.640625 -52.195312 C 66.367188 -51.703125 63.003906 -49.332031 62.394531 -45.148438 Z M 62.394531 -45.148438 "/></g></g></g><g fill="#a6a6a6" fill-opacity="0.302"><g transform="translate(304.766218, 298.140703)"><g><path d="M 38.128906 -40.738281 C 35.292969 -26.664062 28.625 -19.085938 21.589844 -18.023438 C 17.222656 -17.363281 14.152344 -19.628906 13.65625 -22.902344 C 13.53125 -23.75 13.625 -24.757812 13.742188 -25.644531 L 20.515625 -61.273438 L 28.398438 -62.464844 C 34.582031 -63.398438 37.195312 -68.257812 36.59375 -72.261719 C 36.117188 -75.414062 33.632812 -77.890625 29.023438 -77.195312 L 23.566406 -76.371094 L 28.121094 -101.246094 C 28.234375 -102.132812 28.246094 -102.878906 28.136719 -103.605469 C 27.457031 -108.09375 23.757812 -111.253906 18.421875 -110.449219 C 14.417969 -109.84375 11.445312 -106.542969 10.628906 -102.078125 L 5.011719 -73.566406 L -0.0820312 -72.796875 C -6.628906 -71.808594 -8.796875 -67.265625 -8.210938 -63.382812 C -7.695312 -59.988281 -5.195312 -57.390625 -1.921875 -57.882812 L 2.082031 -58.488281 L -3.691406 -27.722656 L -3.710938 -27.84375 C -4.238281 -24.789062 -4.324219 -22.046875 -3.9375 -19.5 C -2.070312 -7.128906 10.066406 -1.519531 22.554688 -3.40625 C 38.078125 -5.75 49.316406 -19.234375 53.222656 -40.164062 C 53.339844 -41.050781 53.453125 -41.9375 53.34375 -42.664062 C 52.792969 -46.300781 48.929688 -48.074219 45.167969 -47.507812 C 42.136719 -47.050781 38.996094 -44.839844 38.128906 -40.738281 Z M 38.128906 -40.738281 "/></g></g></g><g fill="#a6a6a6" fill-opacity="0.502"><g transform="translate(68.541418, 326.457959)"><g><path d="M 41.703125 -113.964844 C 38.308594 -113.453125 34.054688 -112.066406 31.351562 -109.425781 C 30.503906 -113.390625 26.097656 -115.453125 21.734375 -114.792969 C 17.367188 -114.132812 13.246094 -111.03125 11.980469 -104.636719 L -5.421875 -12.082031 C -5.6875 -10.550781 -5.847656 -9.164062 -5.667969 -7.949219 C -4.859375 -2.613281 0.121094 -0.0195312 4.972656 -0.75 C 8.972656 -1.355469 12.851562 -4.421875 13.933594 -10.414062 L 18.449219 -35.53125 C 23.296875 -32.171875 29.867188 -30.558594 36.65625 -31.585938 C 48.542969 -33.378906 60.296875 -42.597656 63.429688 -58.824219 L 68.945312 -87.195312 C 69.578125 -90.390625 69.707031 -93.636719 69.304688 -96.304688 C 67.199219 -110.25 55.042969 -115.980469 41.703125 -113.964844 Z M 48.902344 -83.546875 L 44.785156 -60.722656 C 43.640625 -54.347656 39.507812 -50.496094 34.777344 -49.78125 C 29.441406 -48.976562 24.472656 -52.320312 23.648438 -57.777344 C 23.5 -58.746094 23.511719 -59.492188 23.730469 -60.519531 L 28.378906 -86.398438 C 29.675781 -93.417969 34.300781 -96.472656 39.148438 -97.207031 C 44 -97.9375 48.117188 -95.335938 48.996094 -89.515625 C 49.234375 -87.9375 49.285156 -85.960938 48.902344 -83.546875 Z M 48.902344 -83.546875 "/></g></g></g><g fill="#a6a6a6" fill-opacity="0.502"><g transform="translate(138.75164, 315.852993)"><g><path d="M 47.46875 -33.09375 C 47.488281 -32.972656 47.195312 -34.914062 46.363281 -37.144531 C 47.117188 -37.878906 47.820312 -38.976562 48.382812 -40.179688 C 49.988281 -43.523438 52.03125 -54.621094 51.300781 -59.472656 C 49.429688 -71.84375 38 -78.550781 24.902344 -76.570312 C 13.5 -74.851562 3.660156 -66.914062 1.410156 -55.535156 L -3.667969 -29.214844 C -4.300781 -26.019531 -4.328125 -22.914062 -3.925781 -20.246094 C -2.003906 -7.511719 10.066406 -1.519531 22.433594 -3.390625 C 31.894531 -4.816406 40.046875 -9.148438 43.820312 -18.652344 C 46.097656 -18.375 48.699219 -18.394531 51.246094 -18.78125 C 65.554688 -20.941406 75.292969 -32.832031 77.492188 -46.1875 C 77.65625 -47.578125 77.714844 -48.828125 77.550781 -49.917969 C 76.871094 -54.40625 73.214844 -56.457031 69.695312 -55.925781 C 66.421875 -55.429688 63.320312 -52.976562 62.664062 -48.289062 C 61.132812 -40.367188 56.339844 -34.308594 49.1875 -33.230469 C 48.699219 -33.15625 47.972656 -33.046875 47.46875 -33.09375 Z M 33.371094 -50.066406 C 33.171875 -48.921875 32.953125 -47.894531 32.980469 -46.90625 C 26.199219 -46.625 21.082031 -40.273438 22.179688 -32.996094 C 22.925781 -28.890625 25.316406 -27.019531 27.914062 -25.425781 C 26.976562 -20.945312 23.773438 -18.351562 20.011719 -17.785156 C 15.285156 -17.070312 13.632812 -19.796875 13.191406 -22.707031 C 12.84375 -25.011719 13.121094 -27.285156 13.421875 -28.570312 L 18.3125 -54.492188 C 19.164062 -58.710938 23.0625 -61.65625 26.820312 -62.226562 C 30.578125 -62.792969 33.390625 -60.613281 33.8125 -57.824219 C 34.140625 -55.640625 33.835938 -52.742188 33.371094 -50.066406 Z M 33.371094 -50.066406 "/></g></g></g><g fill="#a6a6a6" fill-opacity="0.502"><g transform="translate(202.049984, 306.292037)"><g><path d="M 20.183594 -87.269531 C 25.640625 -88.09375 29.449219 -93.261719 28.609375 -98.839844 C 27.785156 -104.296875 22.636719 -107.984375 17.179688 -107.160156 C 11.722656 -106.335938 7.894531 -101.292969 8.71875 -95.835938 C 9.5625 -90.257812 14.726562 -86.445312 20.183594 -87.269531 Z M 13.15625 -22.949219 L 20.742188 -63.042969 C 20.988281 -64.695312 21.339844 -66.484375 21.15625 -67.695312 C 20.351562 -73.03125 15.925781 -75.214844 11.804688 -74.59375 C 8.042969 -74.027344 4.445312 -70.753906 3.367188 -64.761719 C 1.207031 -52.773438 -1.707031 -37.574219 -3.882812 -25.710938 C -4.246094 -23.175781 -4.71875 -19.753906 -4.410156 -17.691406 C -2.6875 -6.292969 7.761719 -1.171875 18.917969 -2.859375 C 30.804688 -4.652344 42.800781 -13.90625 47.5 -40.292969 C 47.632812 -41.058594 47.644531 -41.804688 47.53125 -42.53125 C 46.964844 -46.289062 42.980469 -48.042969 39.339844 -47.496094 C 36.066406 -47 33.046875 -44.808594 32.160156 -40.828125 C 28.84375 -24.203125 23.167969 -18.257812 18.316406 -17.527344 C 15.527344 -17.105469 13.433594 -18.648438 13.085938 -20.953125 C 12.992188 -21.5625 13.023438 -22.183594 13.15625 -22.949219 Z M 13.15625 -22.949219 "/></g></g></g><g fill="#a6a6a6" fill-opacity="0.502"><g transform="translate(235.518071, 301.236819)"><g><path d="M 62.394531 -45.148438 C 59.257812 -29.789062 53.484375 -22.839844 47.785156 -21.976562 C 45.601562 -21.648438 44.222656 -22.558594 43.914062 -24.617188 C 43.785156 -25.46875 43.878906 -26.472656 44.0625 -27.742188 L 49.453125 -56.09375 C 49.9375 -58.648438 50.089844 -60.902344 49.78125 -62.964844 C 48.316406 -72.667969 38.96875 -78.695312 29.265625 -77.230469 C 24.539062 -76.515625 20.941406 -74.859375 18.136719 -72.078125 C 17.082031 -74.148438 13.867188 -74.90625 10.589844 -74.410156 C 7.195312 -73.898438 4.160156 -71.828125 3.460938 -68.246094 L -8.238281 -8.554688 C -8.4375 -7.410156 -8.410156 -6.417969 -8.265625 -5.449219 C -7.585938 -0.960938 -3.722656 0.808594 0.15625 0.222656 C 4.402344 -0.417969 8.851562 -3.816406 9.84375 -9.550781 C 12.3125 -21.953125 15.625 -39.449219 17.988281 -51.710938 C 20.347656 -58.269531 24.152344 -61.824219 27.546875 -62.335938 C 29.730469 -62.664062 31.527344 -61.449219 31.875 -59.144531 C 32.003906 -58.292969 31.925781 -57.167969 31.726562 -56.019531 L 26.648438 -29.699219 C 26.097656 -26.765625 25.894531 -24.003906 26.28125 -21.457031 C 27.964844 -10.300781 38.078125 -5.75 48.386719 -7.308594 C 60.757812 -9.175781 72.710938 -19.542969 77.507812 -44.453125 C 77.726562 -45.480469 77.820312 -46.484375 77.691406 -47.335938 C 77.105469 -51.214844 73.277344 -52.746094 69.640625 -52.195312 C 66.367188 -51.703125 63.003906 -49.332031 62.394531 -45.148438 Z M 62.394531 -45.148438 "/></g></g></g><g fill="#a6a6a6" fill-opacity="0.502"><g transform="translate(299.180182, 291.620918)"><g><path d="M 38.128906 -40.738281 C 35.292969 -26.664062 28.625 -19.085938 21.589844 -18.023438 C 17.222656 -17.363281 14.152344 -19.628906 13.65625 -22.902344 C 13.53125 -23.75 13.625 -24.757812 13.742188 -25.644531 L 20.515625 -61.273438 L 28.398438 -62.464844 C 34.582031 -63.398438 37.195312 -68.257812 36.59375 -72.261719 C 36.117188 -75.414062 33.632812 -77.890625 29.023438 -77.195312 L 23.566406 -76.371094 L 28.121094 -101.246094 C 28.234375 -102.132812 28.246094 -102.878906 28.136719 -103.605469 C 27.457031 -108.09375 23.757812 -111.253906 18.421875 -110.449219 C 14.417969 -109.84375 11.445312 -106.542969 10.628906 -102.078125 L 5.011719 -73.566406 L -0.0820312 -72.796875 C -6.628906 -71.808594 -8.796875 -67.265625 -8.210938 -63.382812 C -7.695312 -59.988281 -5.195312 -57.390625 -1.921875 -57.882812 L 2.082031 -58.488281 L -3.691406 -27.722656 L -3.710938 -27.84375 C -4.238281 -24.789062 -4.324219 -22.046875 -3.9375 -19.5 C -2.070312 -7.128906 10.066406 -1.519531 22.554688 -3.40625 C 38.078125 -5.75 49.316406 -19.234375 53.222656 -40.164062 C 53.339844 -41.050781 53.453125 -41.9375 53.34375 -42.664062 C 52.792969 -46.300781 48.929688 -48.074219 45.167969 -47.507812 C 42.136719 -47.050781 38.996094 -44.839844 38.128906 -40.738281 Z M 38.128906 -40.738281 "/></g></g></g><g fill="#737373" fill-opacity="1"><g transform="translate(62.955383, 319.938175)"><g><path d="M 41.703125 -113.964844 C 38.308594 -113.453125 34.054688 -112.066406 31.351562 -109.425781 C 30.503906 -113.390625 26.097656 -115.453125 21.734375 -114.792969 C 17.367188 -114.132812 13.246094 -111.03125 11.980469 -104.636719 L -5.421875 -12.082031 C -5.6875 -10.550781 -5.847656 -9.164062 -5.667969 -7.949219 C -4.859375 -2.613281 0.121094 -0.0195312 4.972656 -0.75 C 8.972656 -1.355469 12.851562 -4.421875 13.933594 -10.414062 L 18.449219 -35.53125 C 23.296875 -32.171875 29.867188 -30.558594 36.65625 -31.585938 C 48.542969 -33.378906 60.296875 -42.597656 63.429688 -58.824219 L 68.945312 -87.195312 C 69.578125 -90.390625 69.707031 -93.636719 69.304688 -96.304688 C 67.199219 -110.25 55.042969 -115.980469 41.703125 -113.964844 Z M 48.902344 -83.546875 L 44.785156 -60.722656 C 43.640625 -54.347656 39.507812 -50.496094 34.777344 -49.78125 C 29.441406 -48.976562 24.472656 -52.320312 23.648438 -57.777344 C 23.5 -58.746094 23.511719 -59.492188 23.730469 -60.519531 L 28.378906 -86.398438 C 29.675781 -93.417969 34.300781 -96.472656 39.148438 -97.207031 C 44 -97.9375 48.117188 -95.335938 48.996094 -89.515625 C 49.234375 -87.9375 49.285156 -85.960938 48.902344 -83.546875 Z M 48.902344 -83.546875 "/></g></g></g><g fill="#737373" fill-opacity="1"><g transform="translate(133.165605, 309.333208)"><g><path d="M 47.46875 -33.09375 C 47.488281 -32.972656 47.195312 -34.914062 46.363281 -37.144531 C 47.117188 -37.878906 47.820312 -38.976562 48.382812 -40.179688 C 49.988281 -43.523438 52.03125 -54.621094 51.300781 -59.472656 C 49.429688 -71.84375 38 -78.550781 24.902344 -76.570312 C 13.5 -74.851562 3.660156 -66.914062 1.410156 -55.535156 L -3.667969 -29.214844 C -4.300781 -26.019531 -4.328125 -22.914062 -3.925781 -20.246094 C -2.003906 -7.511719 10.066406 -1.519531 22.433594 -3.390625 C 31.894531 -4.816406 40.046875 -9.148438 43.820312 -18.652344 C 46.097656 -18.375 48.699219 -18.394531 51.246094 -18.78125 C 65.554688 -20.941406 75.292969 -32.832031 77.492188 -46.1875 C 77.65625 -47.578125 77.714844 -48.828125 77.550781 -49.917969 C 76.871094 -54.40625 73.214844 -56.457031 69.695312 -55.925781 C 66.421875 -55.429688 63.320312 -52.976562 62.664062 -48.289062 C 61.132812 -40.367188 56.339844 -34.308594 49.1875 -33.230469 C 48.699219 -33.15625 47.972656 -33.046875 47.46875 -33.09375 Z M 33.371094 -50.066406 C 33.171875 -48.921875 32.953125 -47.894531 32.980469 -46.90625 C 26.199219 -46.625 21.082031 -40.273438 22.179688 -32.996094 C 22.925781 -28.890625 25.316406 -27.019531 27.914062 -25.425781 C 26.976562 -20.945312 23.773438 -18.351562 20.011719 -17.785156 C 15.285156 -17.070312 13.632812 -19.796875 13.191406 -22.707031 C 12.84375 -25.011719 13.121094 -27.285156 13.421875 -28.570312 L 18.3125 -54.492188 C 19.164062 -58.710938 23.0625 -61.65625 26.820312 -62.226562 C 30.578125 -62.792969 33.390625 -60.613281 33.8125 -57.824219 C 34.140625 -55.640625 33.835938 -52.742188 33.371094 -50.066406 Z M 33.371094 -50.066406 "/></g></g></g><g fill="#737373" fill-opacity="1"><g transform="translate(196.46395, 299.772252)"><g><path d="M 20.183594 -87.269531 C 25.640625 -88.09375 29.449219 -93.261719 28.609375 -98.839844 C 27.785156 -104.296875 22.636719 -107.984375 17.179688 -107.160156 C 11.722656 -106.335938 7.894531 -101.292969 8.71875 -95.835938 C 9.5625 -90.257812 14.726562 -86.445312 20.183594 -87.269531 Z M 13.15625 -22.949219 L 20.742188 -63.042969 C 20.988281 -64.695312 21.339844 -66.484375 21.15625 -67.695312 C 20.351562 -73.03125 15.925781 -75.214844 11.804688 -74.59375 C 8.042969 -74.027344 4.445312 -70.753906 3.367188 -64.761719 C 1.207031 -52.773438 -1.707031 -37.574219 -3.882812 -25.710938 C -4.246094 -23.175781 -4.71875 -19.753906 -4.410156 -17.691406 C -2.6875 -6.292969 7.761719 -1.171875 18.917969 -2.859375 C 30.804688 -4.652344 42.800781 -13.90625 47.5 -40.292969 C 47.632812 -41.058594 47.644531 -41.804688 47.53125 -42.53125 C 46.964844 -46.289062 42.980469 -48.042969 39.339844 -47.496094 C 36.066406 -47 33.046875 -44.808594 32.160156 -40.828125 C 28.84375 -24.203125 23.167969 -18.257812 18.316406 -17.527344 C 15.527344 -17.105469 13.433594 -18.648438 13.085938 -20.953125 C 12.992188 -21.5625 13.023438 -22.183594 13.15625 -22.949219 Z M 13.15625 -22.949219 "/></g></g></g><g fill="#737373" fill-opacity="1"><g transform="translate(229.932036, 294.717035)"><g><path d="M 62.394531 -45.148438 C 59.257812 -29.789062 53.484375 -22.839844 47.785156 -21.976562 C 45.601562 -21.648438 44.222656 -22.558594 43.914062 -24.617188 C 43.785156 -25.46875 43.878906 -26.472656 44.0625 -27.742188 L 49.453125 -56.09375 C 49.9375 -58.648438 50.089844 -60.902344 49.78125 -62.964844 C 48.316406 -72.667969 38.96875 -78.695312 29.265625 -77.230469 C 24.539062 -76.515625 20.941406 -74.859375 18.136719 -72.078125 C 17.082031 -74.148438 13.867188 -74.90625 10.589844 -74.410156 C 7.195312 -73.898438 4.160156 -71.828125 3.460938 -68.246094 L -8.238281 -8.554688 C -8.4375 -7.410156 -8.410156 -6.417969 -8.265625 -5.449219 C -7.585938 -0.960938 -3.722656 0.808594 0.15625 0.222656 C 4.402344 -0.417969 8.851562 -3.816406 9.84375 -9.550781 C 12.3125 -21.953125 15.625 -39.449219 17.988281 -51.710938 C 20.347656 -58.269531 24.152344 -61.824219 27.546875 -62.335938 C 29.730469 -62.664062 31.527344 -61.449219 31.875 -59.144531 C 32.003906 -58.292969 31.925781 -57.167969 31.726562 -56.019531 L 26.648438 -29.699219 C 26.097656 -26.765625 25.894531 -24.003906 26.28125 -21.457031 C 27.964844 -10.300781 38.078125 -5.75 48.386719 -7.308594 C 60.757812 -9.175781 72.710938 -19.542969 77.507812 -44.453125 C 77.726562 -45.480469 77.820312 -46.484375 77.691406 -47.335938 C 77.105469 -51.214844 73.277344 -52.746094 69.640625 -52.195312 C 66.367188 -51.703125 63.003906 -49.332031 62.394531 -45.148438 Z M 62.394531 -45.148438 "/></g></g></g><g fill="#737373" fill-opacity="1"><g transform="translate(293.594147, 285.101134)"><g><path d="M 38.128906 -40.738281 C 35.292969 -26.664062 28.625 -19.085938 21.589844 -18.023438 C 17.222656 -17.363281 14.152344 -19.628906 13.65625 -22.902344 C 13.53125 -23.75 13.625 -24.757812 13.742188 -25.644531 L 20.515625 -61.273438 L 28.398438 -62.464844 C 34.582031 -63.398438 37.195312 -68.257812 36.59375 -72.261719 C 36.117188 -75.414062 33.632812 -77.890625 29.023438 -77.195312 L 23.566406 -76.371094 L 28.121094 -101.246094 C 28.234375 -102.132812 28.246094 -102.878906 28.136719 -103.605469 C 27.457031 -108.09375 23.757812 -111.253906 18.421875 -110.449219 C 14.417969 -109.84375 11.445312 -106.542969 10.628906 -102.078125 L 5.011719 -73.566406 L -0.0820312 -72.796875 C -6.628906 -71.808594 -8.796875 -67.265625 -8.210938 -63.382812 C -7.695312 -59.988281 -5.195312 -57.390625 -1.921875 -57.882812 L 2.082031 -58.488281 L -3.691406 -27.722656 L -3.710938 -27.84375 C -4.238281 -24.789062 -4.324219 -22.046875 -3.9375 -19.5 C -2.070312 -7.128906 10.066406 -1.519531 22.554688 -3.40625 C 38.078125 -5.75 49.316406 -19.234375 53.222656 -40.164062 C 53.339844 -41.050781 53.453125 -41.9375 53.34375 -42.664062 C 52.792969 -46.300781 48.929688 -48.074219 45.167969 -47.507812 C 42.136719 -47.050781 38.996094 -44.839844 38.128906 -40.738281 Z M 38.128906 -40.738281 "/></g></g></g></svg>