<svg xmlns="http://www.w3.org/2000/svg" xmlns:xlink="http://www.w3.org/1999/xlink" width="500" zoomAndPan="magnify" viewBox="0 0 375 374.999991" height="500" preserveAspectRatio="xMidYMid meet" version="1.0"><defs><g/><clipPath id="b8e3b9da11"><path d="M 27.933594 27.933594 L 347.433594 27.933594 L 347.433594 347.433594 L 27.933594 347.433594 Z M 27.933594 27.933594 " clip-rule="nonzero"/></clipPath><clipPath id="abbb56e132"><path d="M 30.34375 30.34375 L 344.992188 30.34375 L 344.992188 344.992188 L 30.34375 344.992188 Z M 30.34375 30.34375 " clip-rule="nonzero"/></clipPath><clipPath id="91a83f4697"><path d="M 187.667969 344.992188 C 100.917969 344.992188 30.34375 274.414062 30.34375 187.667969 C 30.34375 100.917969 100.917969 30.34375 187.667969 30.34375 C 274.414062 30.34375 344.992188 100.917969 344.992188 187.667969 C 344.992188 274.414062 274.414062 344.992188 187.667969 344.992188 M 187.667969 70.039062 C 122.703125 70.039062 70.035156 122.703125 70.035156 187.667969 C 70.035156 252.628906 122.703125 305.296875 187.667969 305.296875 C 252.632812 305.296875 305.292969 252.628906 305.292969 187.667969 C 305.292969 122.703125 252.632812 70.039062 187.667969 70.039062 " clip-rule="nonzero"/></clipPath><clipPath id="9d3e532a30"><path d="M 187.667969 344.992188 C 100.917969 344.992188 30.34375 274.414062 30.34375 187.667969 C 30.34375 100.917969 100.917969 30.34375 187.667969 30.34375 C 274.414062 30.34375 344.992188 100.917969 344.992188 187.667969 C 344.992188 274.414062 274.414062 344.992188 187.667969 344.992188 M 187.667969 70.039062 C 122.703125 70.039062 70.035156 122.703125 70.035156 187.667969 C 70.035156 252.628906 122.703125 305.296875 187.667969 305.296875 C 252.632812 305.296875 305.292969 252.628906 305.292969 187.667969 C 305.292969 122.703125 252.632812 70.039062 187.667969 70.039062 " clip-rule="nonzero"/></clipPath><radialGradient gradientTransform="matrix(1, 0, 0, 1, 187.66624, 187.667265)" gradientUnits="userSpaceOnUse" r="157.323858" cx="0" id="48e0679c11" cy="0" fx="0" fy="0"><stop stop-opacity="1" stop-color="rgb(94.499207%, 94.898987%, 94.898987%)" offset="0"/><stop stop-opacity="1" stop-color="rgb(94.499207%, 94.898987%, 94.898987%)" offset="0.5"/><stop stop-opacity="1" stop-color="rgb(94.499207%, 94.798279%, 94.798279%)" offset="0.75"/><stop stop-opacity="1" stop-color="rgb(94.499207%, 94.624329%, 94.624329%)" offset="0.8125"/><stop stop-opacity="1" stop-color="rgb(94.436646%, 94.462585%, 94.462585%)" offset="0.859375"/><stop stop-opacity="1" stop-color="rgb(94.236755%, 94.236755%, 94.236755%)" offset="0.894531"/><stop stop-opacity="1" stop-color="rgb(94.099426%, 94.099426%, 94.099426%)" offset="1"/></radialGradient><clipPath id="c2779459c5"><path d="M 70 70 L 305.46875 70 L 305.46875 305.46875 L 70 305.46875 Z M 70 70 " clip-rule="nonzero"/></clipPath><clipPath id="fffb1ea790"><path d="M 187.667969 305.296875 C 122.703125 305.296875 70.035156 252.628906 70.035156 187.667969 C 70.035156 122.703125 122.703125 70.039062 187.667969 70.039062 C 252.632812 70.039062 305.292969 122.703125 305.292969 187.667969 C 305.292969 252.628906 252.632812 305.296875 187.667969 305.296875 M 187.667969 79.71875 C 128.144531 79.71875 79.71875 128.144531 79.71875 187.667969 C 79.71875 247.191406 128.144531 295.617188 187.667969 295.617188 C 247.1875 295.617188 295.613281 247.191406 295.613281 187.667969 C 295.613281 128.144531 247.1875 79.71875 187.667969 79.71875 " clip-rule="nonzero"/></clipPath><clipPath id="4359631f0b"><path d="M 187.667969 305.296875 C 122.703125 305.296875 70.035156 252.628906 70.035156 187.667969 C 70.035156 122.703125 122.703125 70.039062 187.667969 70.039062 C 252.632812 70.039062 305.292969 122.703125 305.292969 187.667969 C 305.292969 252.628906 252.632812 305.296875 187.667969 305.296875 M 187.667969 79.71875 C 128.144531 79.71875 79.71875 128.144531 79.71875 187.667969 C 79.71875 247.191406 128.144531 295.617188 187.667969 295.617188 C 247.1875 295.617188 295.613281 247.191406 295.613281 187.667969 C 295.613281 128.144531 247.1875 79.71875 187.667969 79.71875 " clip-rule="nonzero"/></clipPath><clipPath id="19b5477d08"><path d="M 187.664062 422.925781 L 422.925781 187.667969 L 187.664062 -47.59375 L -47.59375 187.667969 Z M 187.664062 422.925781 " clip-rule="nonzero"/></clipPath><linearGradient x1="-0.207102" gradientTransform="matrix(-166.353176, -166.353176, 166.353176, -166.353176, 270.814578, 270.873133)" y1="0" x2="1.207115" gradientUnits="userSpaceOnUse" y2="0" id="c00eb62383"><stop stop-opacity="1" stop-color="rgb(100%, 100%, 100%)" offset="0"/><stop stop-opacity="1" stop-color="rgb(100%, 100%, 100%)" offset="0.125"/><stop stop-opacity="1" stop-color="rgb(99.996948%, 99.996948%, 99.996948%)" offset="0.15625"/><stop stop-opacity="1" stop-color="rgb(99.798584%, 99.798584%, 99.798584%)" offset="0.171875"/><stop stop-opacity="1" stop-color="rgb(99.407959%, 99.407959%, 99.407959%)" offset="0.1875"/><stop stop-opacity="1" stop-color="rgb(99.108887%, 99.108887%, 99.108887%)" offset="0.195312"/><stop stop-opacity="1" stop-color="rgb(98.901367%, 98.901367%, 98.901367%)" offset="0.203125"/><stop stop-opacity="1" stop-color="rgb(98.602295%, 98.602295%, 98.602295%)" offset="0.21875"/><stop stop-opacity="1" stop-color="rgb(98.397827%, 98.397827%, 98.397827%)" offset="0.234375"/><stop stop-opacity="1" stop-color="rgb(98.194885%, 98.194885%, 98.194885%)" offset="0.25"/><stop stop-opacity="1" stop-color="rgb(97.80426%, 97.80426%, 97.80426%)" offset="0.265625"/><stop stop-opacity="1" stop-color="rgb(97.450256%, 97.450256%, 97.450256%)" offset="0.28125"/><stop stop-opacity="1" stop-color="rgb(97.097778%, 97.097778%, 97.097778%)" offset="0.296875"/><stop stop-opacity="1" stop-color="rgb(96.707153%, 96.707153%, 96.707153%)" offset="0.3125"/><stop stop-opacity="1" stop-color="rgb(96.408081%, 96.408081%, 96.408081%)" offset="0.320312"/><stop stop-opacity="1" stop-color="rgb(96.200562%, 96.200562%, 96.200562%)" offset="0.328125"/><stop stop-opacity="1" stop-color="rgb(95.901489%, 95.901489%, 95.901489%)" offset="0.34375"/><stop stop-opacity="1" stop-color="rgb(95.698547%, 95.698547%, 95.698547%)" offset="0.359375"/><stop stop-opacity="1" stop-color="rgb(95.495605%, 95.495605%, 95.495605%)" offset="0.375"/><stop stop-opacity="1" stop-color="rgb(95.10498%, 95.10498%, 95.10498%)" offset="0.390625"/><stop stop-opacity="1" stop-color="rgb(94.804382%, 94.804382%, 94.804382%)" offset="0.398437"/><stop stop-opacity="1" stop-color="rgb(94.596863%, 94.596863%, 94.596863%)" offset="0.40625"/><stop stop-opacity="1" stop-color="rgb(94.297791%, 94.297791%, 94.297791%)" offset="0.421875"/><stop stop-opacity="1" stop-color="rgb(93.907166%, 93.907166%, 93.907166%)" offset="0.4375"/><stop stop-opacity="1" stop-color="rgb(93.608093%, 93.608093%, 93.608093%)" offset="0.445312"/><stop stop-opacity="1" stop-color="rgb(93.400574%, 93.400574%, 93.400574%)" offset="0.453125"/><stop stop-opacity="1" stop-color="rgb(93.101501%, 93.101501%, 93.101501%)" offset="0.46875"/><stop stop-opacity="1" stop-color="rgb(92.800903%, 92.800903%, 92.800903%)" offset="0.476562"/><stop stop-opacity="1" stop-color="rgb(92.597961%, 92.597961%, 92.597961%)" offset="0.484375"/><stop stop-opacity="1" stop-color="rgb(92.498779%, 92.498779%, 92.498779%)" offset="0.5"/><stop stop-opacity="1" stop-color="rgb(92.352295%, 92.352295%, 92.352295%)" offset="0.515625"/><stop stop-opacity="1" stop-color="rgb(92.103577%, 92.103577%, 92.103577%)" offset="0.523437"/><stop stop-opacity="1" stop-color="rgb(91.896057%, 91.896057%, 91.896057%)" offset="0.53125"/><stop stop-opacity="1" stop-color="rgb(91.596985%, 91.596985%, 91.596985%)" offset="0.546875"/><stop stop-opacity="1" stop-color="rgb(91.20636%, 91.20636%, 91.20636%)" offset="0.5625"/><stop stop-opacity="1" stop-color="rgb(90.907288%, 90.907288%, 90.907288%)" offset="0.570312"/><stop stop-opacity="1" stop-color="rgb(90.699768%, 90.699768%, 90.699768%)" offset="0.578125"/><stop stop-opacity="1" stop-color="rgb(90.400696%, 90.400696%, 90.400696%)" offset="0.59375"/><stop stop-opacity="1" stop-color="rgb(90.100098%, 90.100098%, 90.100098%)" offset="0.601562"/><stop stop-opacity="1" stop-color="rgb(89.892578%, 89.892578%, 89.892578%)" offset="0.609375"/><stop stop-opacity="1" stop-color="rgb(89.593506%, 89.593506%, 89.593506%)" offset="0.625"/><stop stop-opacity="1" stop-color="rgb(89.399719%, 89.399719%, 89.399719%)" offset="0.640625"/><stop stop-opacity="1" stop-color="rgb(89.299011%, 89.299011%, 89.299011%)" offset="0.648437"/><stop stop-opacity="1" stop-color="rgb(89.096069%, 89.096069%, 89.096069%)" offset="0.65625"/><stop stop-opacity="1" stop-color="rgb(88.796997%, 88.796997%, 88.796997%)" offset="0.671875"/><stop stop-opacity="1" stop-color="rgb(88.406372%, 88.406372%, 88.406372%)" offset="0.6875"/><stop stop-opacity="1" stop-color="rgb(88.1073%, 88.1073%, 88.1073%)" offset="0.695312"/><stop stop-opacity="1" stop-color="rgb(87.89978%, 87.89978%, 87.89978%)" offset="0.703125"/><stop stop-opacity="1" stop-color="rgb(87.649536%, 87.649536%, 87.649536%)" offset="0.71875"/><stop stop-opacity="1" stop-color="rgb(87.399292%, 87.399292%, 87.399292%)" offset="0.726562"/><stop stop-opacity="1" stop-color="rgb(87.193298%, 87.193298%, 87.193298%)" offset="0.734375"/><stop stop-opacity="1" stop-color="rgb(86.894226%, 86.894226%, 86.894226%)" offset="0.75"/><stop stop-opacity="1" stop-color="rgb(86.599731%, 86.599731%, 86.599731%)" offset="0.757812"/><stop stop-opacity="1" stop-color="rgb(86.404419%, 86.404419%, 86.404419%)" offset="0.765625"/><stop stop-opacity="1" stop-color="rgb(86.299133%, 86.299133%, 86.299133%)" offset="0.78125"/><stop stop-opacity="1" stop-color="rgb(86.096191%, 86.096191%, 86.096191%)" offset="0.796875"/><stop stop-opacity="1" stop-color="rgb(85.705566%, 85.705566%, 85.705566%)" offset="0.8125"/><stop stop-opacity="1" stop-color="rgb(85.406494%, 85.406494%, 85.406494%)" offset="0.820312"/><stop stop-opacity="1" stop-color="rgb(85.198975%, 85.198975%, 85.198975%)" offset="0.828125"/><stop stop-opacity="1" stop-color="rgb(84.899902%, 84.899902%, 84.899902%)" offset="0.84375"/><stop stop-opacity="1" stop-color="rgb(84.602356%, 84.602356%, 84.602356%)" offset="0.859375"/><stop stop-opacity="1" stop-color="rgb(84.399414%, 84.399414%, 84.399414%)" offset="0.875"/><stop stop-opacity="1" stop-color="rgb(84.298706%, 84.298706%, 84.298706%)" offset="1"/></linearGradient><clipPath id="bb9188e690"><path d="M 79.621094 79.71875 L 295.613281 79.71875 L 295.613281 295.617188 L 79.621094 295.617188 Z M 79.621094 79.71875 " clip-rule="nonzero"/></clipPath><clipPath id="726f735db6"><path d="M 187.667969 295.617188 C 128.144531 295.617188 79.71875 247.191406 79.71875 187.667969 C 79.71875 128.144531 128.144531 79.71875 187.667969 79.71875 C 247.1875 79.71875 295.613281 128.144531 295.613281 187.667969 C 295.613281 247.191406 247.1875 295.617188 187.667969 295.617188 M 188.230469 82.542969 C 144.96875 82.542969 102.472656 112.664062 89.058594 155 C 77.859375 190.335938 83.101562 226.4375 107.246094 251.359375 C 93.945312 228.4375 97.707031 200.210938 106.324219 173.015625 C 119.457031 131.5625 157.917969 105.011719 199.257812 105.011719 C 208.984375 105.011719 218.871094 106.480469 228.625 109.570312 C 244.5 114.605469 260.164062 115.605469 271.011719 126.800781 C 259.265625 106.5625 239.285156 94.289062 215.269531 86.675781 C 206.398438 83.867188 197.296875 82.542969 188.230469 82.542969 " clip-rule="nonzero"/></clipPath><clipPath id="7750e429a8"><path d="M 187.667969 295.617188 C 128.144531 295.617188 79.71875 247.191406 79.71875 187.667969 C 79.71875 128.144531 128.144531 79.71875 187.667969 79.71875 C 247.1875 79.71875 295.613281 128.144531 295.613281 187.667969 C 295.613281 247.191406 247.1875 295.617188 187.667969 295.617188 M 188.230469 82.542969 C 144.96875 82.542969 102.472656 112.664062 89.058594 155 C 77.859375 190.335938 83.101562 226.4375 107.246094 251.359375 C 93.945312 228.4375 97.707031 200.210938 106.324219 173.015625 C 119.457031 131.5625 157.917969 105.011719 199.257812 105.011719 C 208.984375 105.011719 218.871094 106.480469 228.625 109.570312 C 244.5 114.605469 260.164062 115.605469 271.011719 126.800781 C 259.265625 106.5625 239.285156 94.289062 215.269531 86.675781 C 206.398438 83.867188 197.296875 82.542969 188.230469 82.542969 " clip-rule="nonzero"/></clipPath><radialGradient gradientTransform="matrix(1, 0, 0, 1, 187.66554, 187.667265)" gradientUnits="userSpaceOnUse" r="107.948257" cx="0" id="9f9e5067b9" cy="0" fx="0" fy="0"><stop stop-opacity="1" stop-color="rgb(94.398499%, 94.798279%, 94.798279%)" offset="0"/><stop stop-opacity="1" stop-color="rgb(94.198608%, 94.598389%, 94.598389%)" offset="0.25"/><stop stop-opacity="1" stop-color="rgb(93.998718%, 94.398499%, 94.398499%)" offset="0.625"/><stop stop-opacity="1" stop-color="rgb(93.798828%, 94.198608%, 94.198608%)" offset="0.648438"/><stop stop-opacity="1" stop-color="rgb(93.609619%, 94.009399%, 94.009399%)" offset="0.691406"/><stop stop-opacity="1" stop-color="rgb(93.409729%, 93.809509%, 93.809509%)" offset="0.726562"/><stop stop-opacity="1" stop-color="rgb(93.240356%, 93.640137%, 93.640137%)" offset="0.757812"/><stop stop-opacity="1" stop-color="rgb(93.008423%, 93.409729%, 93.440247%)" offset="0.785156"/><stop stop-opacity="1" stop-color="rgb(92.666626%, 93.067932%, 93.258667%)" offset="0.808594"/><stop stop-opacity="1" stop-color="rgb(92.463684%, 92.851257%, 93.058777%)" offset="0.832031"/><stop stop-opacity="1" stop-color="rgb(92.314148%, 92.651367%, 92.84668%)" offset="0.851562"/><stop stop-opacity="1" stop-color="rgb(92.170715%, 92.477417%, 92.625427%)" offset="0.867188"/><stop stop-opacity="1" stop-color="rgb(92.056274%, 92.391968%, 92.391968%)" offset="0.882812"/><stop stop-opacity="1" stop-color="rgb(91.784668%, 92.163086%, 92.262268%)" offset="0.894531"/><stop stop-opacity="1" stop-color="rgb(91.534424%, 91.934204%, 92.199707%)" offset="0.917969"/><stop stop-opacity="1" stop-color="rgb(91.281128%, 91.682434%, 92.047119%)" offset="0.925781"/><stop stop-opacity="1" stop-color="rgb(90.92865%, 91.32843%, 91.729736%)" offset="0.941406"/><stop stop-opacity="1" stop-color="rgb(90.686035%, 91.085815%, 91.485596%)" offset="0.96875"/><stop stop-opacity="1" stop-color="rgb(90.539551%, 90.940857%, 91.340637%)" offset="0.976562"/><stop stop-opacity="1" stop-color="rgb(90.335083%, 90.736389%, 91.136169%)" offset="0.980469"/><stop stop-opacity="1" stop-color="rgb(90.19928%, 90.59906%, 90.99884%)" offset="1"/></radialGradient><clipPath id="93f80b265e"><path d="M 83.105469 82.542969 L 271.011719 82.542969 L 271.011719 251.359375 L 83.105469 251.359375 Z M 83.105469 82.542969 " clip-rule="nonzero"/></clipPath><clipPath id="95ed716fcd"><path d="M 107.246094 251.359375 C 83.101562 226.4375 77.859375 190.335938 89.058594 155 C 102.472656 112.664062 144.96875 82.542969 188.230469 82.542969 C 197.296875 82.542969 206.398438 83.867188 215.269531 86.675781 C 239.285156 94.289062 259.265625 106.5625 271.011719 126.800781 C 260.164062 115.605469 244.5 114.605469 228.625 109.570312 C 218.871094 106.480469 208.984375 105.011719 199.257812 105.011719 C 157.917969 105.011719 119.457031 131.5625 106.324219 173.015625 C 97.707031 200.210938 93.945312 228.4375 107.246094 251.359375 " clip-rule="nonzero"/></clipPath><clipPath id="e397fc1f44"><path d="M 107.246094 251.359375 C 83.101562 226.4375 77.859375 190.335938 89.058594 155 C 102.472656 112.664062 144.96875 82.542969 188.230469 82.542969 C 197.296875 82.542969 206.398438 83.867188 215.269531 86.675781 C 239.285156 94.289062 259.265625 106.5625 271.011719 126.800781 C 260.164062 115.605469 244.5 114.605469 228.625 109.570312 C 218.871094 106.480469 208.984375 105.011719 199.257812 105.011719 C 157.917969 105.011719 119.457031 131.5625 106.324219 173.015625 C 97.707031 200.210938 93.945312 228.4375 107.246094 251.359375 " clip-rule="nonzero"/></clipPath><radialGradient gradientTransform="matrix(1, 0, 0, 1, 187.66554, 187.667265)" gradientUnits="userSpaceOnUse" r="107.948257" cx="0" id="0afd147657" cy="0" fx="0" fy="0"><stop stop-opacity="1" stop-color="rgb(97.299194%, 97.599792%, 97.599792%)" offset="0"/><stop stop-opacity="1" stop-color="rgb(97.198486%, 97.523499%, 97.523499%)" offset="0.5"/><stop stop-opacity="1" stop-color="rgb(96.998596%, 97.273254%, 97.373962%)" offset="0.5625"/><stop stop-opacity="1" stop-color="rgb(96.798706%, 96.998596%, 97.198486%)" offset="0.671875"/><stop stop-opacity="1" stop-color="rgb(96.598816%, 96.806335%, 96.998596%)" offset="0.753906"/><stop stop-opacity="1" stop-color="rgb(96.400452%, 96.606445%, 96.800232%)" offset="0.8125"/><stop stop-opacity="1" stop-color="rgb(96.200562%, 96.383667%, 96.600342%)" offset="0.859375"/><stop stop-opacity="1" stop-color="rgb(95.999146%, 96.084595%, 96.398926%)" offset="0.894531"/><stop stop-opacity="1" stop-color="rgb(95.756531%, 95.756531%, 96.156311%)" offset="0.917969"/><stop stop-opacity="1" stop-color="rgb(95.455933%, 95.455933%, 95.855713%)" offset="0.9375"/><stop stop-opacity="1" stop-color="rgb(95.298767%, 95.298767%, 95.698547%)" offset="1"/></radialGradient></defs><rect x="-37.5" width="450" fill="#ffffff" y="-37.499999" height="449.999989" fill-opacity="1"/><rect x="-37.5" width="450" fill="#ffffff" y="-37.499999" height="449.999989" fill-opacity="1"/><g clip-path="url(#b8e3b9da11)"><path fill="#db6262" d="M 187.667969 347.410156 C 99.582031 347.410156 27.921875 275.75 27.921875 187.667969 C 27.921875 99.585938 99.582031 27.925781 187.667969 27.925781 C 275.75 27.925781 347.410156 99.585938 347.410156 187.667969 C 347.410156 275.75 275.75 347.410156 187.667969 347.410156 " fill-opacity="1" fill-rule="nonzero"/></g><g clip-path="url(#abbb56e132)"><g clip-path="url(#91a83f4697)"><g clip-path="url(#9d3e532a30)"><path fill="url(#48e0679c11)" d="M 30.34375 30.34375 L 30.34375 344.992188 L 344.992188 344.992188 L 344.992188 30.34375 Z M 30.34375 30.34375 " fill-rule="nonzero"/></g></g></g><g clip-path="url(#c2779459c5)"><g clip-path="url(#fffb1ea790)"><g clip-path="url(#4359631f0b)"><g clip-path="url(#19b5477d08)"><path fill="url(#c00eb62383)" d="M 187.664062 422.925781 L 422.925781 187.667969 L 187.664062 -47.59375 L -47.59375 187.667969 Z M 187.664062 422.925781 " fill-rule="nonzero"/></g></g></g></g><g clip-path="url(#bb9188e690)"><g clip-path="url(#726f735db6)"><g clip-path="url(#7750e429a8)"><path fill="url(#9f9e5067b9)" d="M 79.621094 79.71875 L 79.621094 295.617188 L 295.613281 295.617188 L 295.613281 79.71875 Z M 79.621094 79.71875 " fill-rule="nonzero"/></g></g></g><g clip-path="url(#93f80b265e)"><g clip-path="url(#95ed716fcd)"><g clip-path="url(#e397fc1f44)"><path fill="url(#0afd147657)" d="M 83.105469 82.542969 L 83.105469 251.359375 L 271.011719 251.359375 L 271.011719 82.542969 Z M 83.105469 82.542969 " fill-rule="nonzero"/></g></g></g><g fill="#a6a6a6" fill-opacity="0.302"><g transform="translate(85.904708, 280.132407)"><g><path d="M 156.800781 -195.203125 L 69.589844 -182.03125 C 58.320312 -180.328125 54.589844 -172.886719 55.546875 -166.558594 C 56.441406 -160.628906 61.65625 -155.550781 68.777344 -156.625 L 80.640625 -158.417969 L 73.386719 -124.757812 L 64.292969 -123.382812 C 53.613281 -121.769531 49.457031 -114.46875 50.414062 -108.140625 C 51.339844 -102.007812 56.980469 -96.792969 66.472656 -98.226562 L 68.449219 -98.527344 L 60.757812 -59.742188 C 56.839844 -40.140625 49.46875 -35.382812 39.1875 -33.832031 C 32.066406 -32.757812 26.40625 -36.753906 23.910156 -41.230469 C 24.09375 -42.675781 24.085938 -44.089844 23.875 -45.476562 C 22.5 -54.570312 13.558594 -58.882812 5.84375 -57.71875 C -2.066406 -56.523438 -9.140625 -49.792969 -7.226562 -37.136719 C -4.390625 -18.351562 17.203125 -2.597656 43.109375 -6.511719 C 63.476562 -9.589844 82.046875 -21.898438 88.539062 -55.242188 C 91.195312 -69.800781 95.03125 -88.585938 97.886719 -103.175781 L 109.75 -104.964844 C 121.8125 -106.789062 125.515625 -114.425781 124.527344 -120.953125 C 123.664062 -126.6875 119.070312 -131.65625 113.136719 -130.761719 L 102.851562 -129.207031 L 109.117188 -162.71875 L 155.589844 -169.738281 C 166.605469 -171.804688 170.394531 -178.851562 169.4375 -185.179688 C 168.542969 -191.113281 163.523438 -196.21875 156.800781 -195.203125 Z M 156.800781 -195.203125 "/></g></g></g><g fill="#a6a6a6" fill-opacity="0.502"><g transform="translate(76.795832, 269.500902)"><g><path d="M 156.800781 -195.203125 L 69.589844 -182.03125 C 58.320312 -180.328125 54.589844 -172.886719 55.546875 -166.558594 C 56.441406 -160.628906 61.65625 -155.550781 68.777344 -156.625 L 80.640625 -158.417969 L 73.386719 -124.757812 L 64.292969 -123.382812 C 53.613281 -121.769531 49.457031 -114.46875 50.414062 -108.140625 C 51.339844 -102.007812 56.980469 -96.792969 66.472656 -98.226562 L 68.449219 -98.527344 L 60.757812 -59.742188 C 56.839844 -40.140625 49.46875 -35.382812 39.1875 -33.832031 C 32.066406 -32.757812 26.40625 -36.753906 23.910156 -41.230469 C 24.09375 -42.675781 24.085938 -44.089844 23.875 -45.476562 C 22.5 -54.570312 13.558594 -58.882812 5.84375 -57.71875 C -2.066406 -56.523438 -9.140625 -49.792969 -7.226562 -37.136719 C -4.390625 -18.351562 17.203125 -2.597656 43.109375 -6.511719 C 63.476562 -9.589844 82.046875 -21.898438 88.539062 -55.242188 C 91.195312 -69.800781 95.03125 -88.585938 97.886719 -103.175781 L 109.75 -104.964844 C 121.8125 -106.789062 125.515625 -114.425781 124.527344 -120.953125 C 123.664062 -126.6875 119.070312 -131.65625 113.136719 -130.761719 L 102.851562 -129.207031 L 109.117188 -162.71875 L 155.589844 -169.738281 C 166.605469 -171.804688 170.394531 -178.851562 169.4375 -185.179688 C 168.542969 -191.113281 163.523438 -196.21875 156.800781 -195.203125 Z M 156.800781 -195.203125 "/></g></g></g><g fill="#737373" fill-opacity="1"><g transform="translate(67.686955, 258.869405)"><g><path d="M 156.800781 -195.203125 L 69.589844 -182.03125 C 58.320312 -180.328125 54.589844 -172.886719 55.546875 -166.558594 C 56.441406 -160.628906 61.65625 -155.550781 68.777344 -156.625 L 80.640625 -158.417969 L 73.386719 -124.757812 L 64.292969 -123.382812 C 53.613281 -121.769531 49.457031 -114.46875 50.414062 -108.140625 C 51.339844 -102.007812 56.980469 -96.792969 66.472656 -98.226562 L 68.449219 -98.527344 L 60.757812 -59.742188 C 56.839844 -40.140625 49.46875 -35.382812 39.1875 -33.832031 C 32.066406 -32.757812 26.40625 -36.753906 23.910156 -41.230469 C 24.09375 -42.675781 24.085938 -44.089844 23.875 -45.476562 C 22.5 -54.570312 13.558594 -58.882812 5.84375 -57.71875 C -2.066406 -56.523438 -9.140625 -49.792969 -7.226562 -37.136719 C -4.390625 -18.351562 17.203125 -2.597656 43.109375 -6.511719 C 63.476562 -9.589844 82.046875 -21.898438 88.539062 -55.242188 C 91.195312 -69.800781 95.03125 -88.585938 97.886719 -103.175781 L 109.75 -104.964844 C 121.8125 -106.789062 125.515625 -114.425781 124.527344 -120.953125 C 123.664062 -126.6875 119.070312 -131.65625 113.136719 -130.761719 L 102.851562 -129.207031 L 109.117188 -162.71875 L 155.589844 -169.738281 C 166.605469 -171.804688 170.394531 -178.851562 169.4375 -185.179688 C 168.542969 -191.113281 163.523438 -196.21875 156.800781 -195.203125 Z M 156.800781 -195.203125 "/></g></g></g><g fill="#a6a6a6" fill-opacity="0.302"><g transform="translate(217.606106, 260.239451)"><g/></g></g><g fill="#a6a6a6" fill-opacity="0.502"><g transform="translate(208.49723, 249.607946)"><g/></g></g><g fill="#737373" fill-opacity="1"><g transform="translate(199.388353, 238.976448)"><g/></g></g><g fill="#a6a6a6" fill-opacity="0.302"><g transform="translate(197.84856, 346.710969)"><g><path d="M 68.003906 -185.835938 C 62.46875 -185 55.527344 -182.738281 51.121094 -178.433594 C 49.742188 -184.898438 42.558594 -188.261719 35.4375 -187.1875 C 28.320312 -186.113281 21.601562 -181.050781 19.535156 -170.628906 L -8.839844 -19.699219 C -9.273438 -17.207031 -9.539062 -14.941406 -9.238281 -12.964844 C -7.925781 -4.265625 0.199219 -0.03125 8.109375 -1.226562 C 14.632812 -2.210938 20.957031 -7.210938 22.71875 -16.984375 L 30.082031 -57.941406 C 37.988281 -52.460938 48.703125 -49.832031 59.777344 -51.503906 C 79.15625 -54.429688 98.324219 -69.460938 103.429688 -95.921875 L 112.421875 -142.183594 C 113.457031 -147.394531 113.667969 -152.6875 113.011719 -157.035156 C 109.574219 -179.777344 89.757812 -189.121094 68.003906 -185.835938 Z M 79.746094 -136.234375 L 73.027344 -99.015625 C 71.160156 -88.621094 64.421875 -82.34375 56.710938 -81.179688 C 48.007812 -79.863281 39.90625 -85.316406 38.558594 -94.214844 C 38.320312 -95.796875 38.339844 -97.011719 38.695312 -98.683594 L 46.277344 -140.886719 C 48.390625 -152.332031 55.929688 -157.3125 63.839844 -158.507812 C 71.75 -159.703125 78.460938 -155.457031 79.894531 -145.964844 C 80.28125 -143.394531 80.363281 -140.171875 79.746094 -136.234375 Z M 79.746094 -136.234375 "/></g></g></g><g fill="#a6a6a6" fill-opacity="0.502"><g transform="translate(188.73968, 336.079472)"><g><path d="M 68.003906 -185.835938 C 62.46875 -185 55.527344 -182.738281 51.121094 -178.433594 C 49.742188 -184.898438 42.558594 -188.261719 35.4375 -187.1875 C 28.320312 -186.113281 21.601562 -181.050781 19.535156 -170.628906 L -8.839844 -19.699219 C -9.273438 -17.207031 -9.539062 -14.941406 -9.238281 -12.964844 C -7.925781 -4.265625 0.199219 -0.03125 8.109375 -1.226562 C 14.632812 -2.210938 20.957031 -7.210938 22.71875 -16.984375 L 30.082031 -57.941406 C 37.988281 -52.460938 48.703125 -49.832031 59.777344 -51.503906 C 79.15625 -54.429688 98.324219 -69.460938 103.429688 -95.921875 L 112.421875 -142.183594 C 113.457031 -147.394531 113.667969 -152.6875 113.011719 -157.035156 C 109.574219 -179.777344 89.757812 -189.121094 68.003906 -185.835938 Z M 79.746094 -136.234375 L 73.027344 -99.015625 C 71.160156 -88.621094 64.421875 -82.34375 56.710938 -81.179688 C 48.007812 -79.863281 39.90625 -85.316406 38.558594 -94.214844 C 38.320312 -95.796875 38.339844 -97.011719 38.695312 -98.683594 L 46.277344 -140.886719 C 48.390625 -152.332031 55.929688 -157.3125 63.839844 -158.507812 C 71.75 -159.703125 78.460938 -155.457031 79.894531 -145.964844 C 80.28125 -143.394531 80.363281 -140.171875 79.746094 -136.234375 Z M 79.746094 -136.234375 "/></g></g></g><g fill="#737373" fill-opacity="1"><g transform="translate(179.630807, 325.447974)"><g><path d="M 68.003906 -185.835938 C 62.46875 -185 55.527344 -182.738281 51.121094 -178.433594 C 49.742188 -184.898438 42.558594 -188.261719 35.4375 -187.1875 C 28.320312 -186.113281 21.601562 -181.050781 19.535156 -170.628906 L -8.839844 -19.699219 C -9.273438 -17.207031 -9.539062 -14.941406 -9.238281 -12.964844 C -7.925781 -4.265625 0.199219 -0.03125 8.109375 -1.226562 C 14.632812 -2.210938 20.957031 -7.210938 22.71875 -16.984375 L 30.082031 -57.941406 C 37.988281 -52.460938 48.703125 -49.832031 59.777344 -51.503906 C 79.15625 -54.429688 98.324219 -69.460938 103.429688 -95.921875 L 112.421875 -142.183594 C 113.457031 -147.394531 113.667969 -152.6875 113.011719 -157.035156 C 109.574219 -179.777344 89.757812 -189.121094 68.003906 -185.835938 Z M 79.746094 -136.234375 L 73.027344 -99.015625 C 71.160156 -88.621094 64.421875 -82.34375 56.710938 -81.179688 C 48.007812 -79.863281 39.90625 -85.316406 38.558594 -94.214844 C 38.320312 -95.796875 38.339844 -97.011719 38.695312 -98.683594 L 46.277344 -140.886719 C 48.390625 -152.332031 55.929688 -157.3125 63.839844 -158.507812 C 71.75 -159.703125 78.460938 -155.457031 79.894531 -145.964844 C 80.28125 -143.394531 80.363281 -140.171875 79.746094 -136.234375 Z M 79.746094 -136.234375 "/></g></g></g></svg>