<svg width="40" height="40" viewBox="0 0 441 409" fill="none" xmlns="http://www.w3.org/2000/svg">
<mask id="mask0_513_2" style="mask-type:luminance" maskUnits="userSpaceOnUse" x="17" y="0" width="410" height="409">
<path d="M17.9539 0H426.914V408.96H17.9539V0Z" fill="white"/>
</mask>
<g mask="url(#mask0_513_2)">
<path d="M222.414 408.93C109.664 408.93 17.9391 317.205 17.9391 204.46C17.9391 91.7151 109.664 -0.00987244 222.414 -0.00987244C335.159 -0.00987244 426.884 91.7151 426.884 204.46C426.884 317.205 335.159 408.93 222.414 408.93Z" fill="#DB6262"/>
</g>
<mask id="mask1_513_2" style="mask-type:luminance" maskUnits="userSpaceOnUse" x="21" y="3" width="403" height="403">
<path d="M21.0391 3.08521H423.789V405.835H21.0391V3.08521Z" fill="white"/>
</mask>
<g mask="url(#mask1_513_2)">
<mask id="mask2_513_2" style="mask-type:luminance" maskUnits="userSpaceOnUse" x="21" y="3" width="403" height="403">
<path d="M222.414 405.835C111.374 405.835 21.0391 315.495 21.0391 204.46C21.0391 93.4202 111.374 3.08521 222.414 3.08521C333.449 3.08521 423.789 93.4202 423.789 204.46C423.789 315.495 333.449 405.835 222.414 405.835ZM222.414 53.8952C139.259 53.8952 71.8441 121.305 71.8441 204.46C71.8441 287.61 139.259 355.025 222.414 355.025C305.569 355.025 372.974 287.61 372.974 204.46C372.974 121.305 305.569 53.8952 222.414 53.8952Z" fill="white"/>
</mask>
<g mask="url(#mask2_513_2)">
<mask id="mask3_513_2" style="mask-type:luminance" maskUnits="userSpaceOnUse" x="21" y="3" width="403" height="403">
<path d="M222.414 405.835C111.374 405.835 21.0391 315.495 21.0391 204.46C21.0391 93.4202 111.374 3.08521 222.414 3.08521C333.449 3.08521 423.789 93.4202 423.789 204.46C423.789 315.495 333.449 405.835 222.414 405.835ZM222.414 53.8952C139.259 53.8952 71.8441 121.305 71.8441 204.46C71.8441 287.61 139.259 355.025 222.414 355.025C305.569 355.025 372.974 287.61 372.974 204.46C372.974 121.305 305.569 53.8952 222.414 53.8952Z" fill="white"/>
</mask>
<g mask="url(#mask3_513_2)">
<path d="M21.0391 3.08521V405.835H423.789V3.08521H21.0391Z" fill="url(#paint0_radial_513_2)"/>
</g>
</g>
</g>
<mask id="mask4_513_2" style="mask-type:luminance" maskUnits="userSpaceOnUse" x="71" y="53" width="303" height="303">
<path d="M71.7991 53.8452H373.199V355.245H71.7991V53.8452Z" fill="white"/>
</mask>
<g mask="url(#mask4_513_2)">
<mask id="mask5_513_2" style="mask-type:luminance" maskUnits="userSpaceOnUse" x="71" y="53" width="302" height="303">
<path d="M222.414 355.025C139.259 355.025 71.8441 287.61 71.8441 204.46C71.8441 121.305 139.259 53.8952 222.414 53.8952C305.569 53.8952 372.974 121.305 372.974 204.46C372.974 287.61 305.569 355.025 222.414 355.025ZM222.414 66.2852C146.224 66.2852 84.2391 128.27 84.2391 204.46C84.2391 280.65 146.224 342.635 222.414 342.635C298.599 342.635 360.584 280.65 360.584 204.46C360.584 128.27 298.599 66.2852 222.414 66.2852Z" fill="white"/>
</mask>
<g mask="url(#mask5_513_2)">
<mask id="mask6_513_2" style="mask-type:luminance" maskUnits="userSpaceOnUse" x="71" y="53" width="302" height="303">
<path d="M222.414 355.025C139.259 355.025 71.8441 287.61 71.8441 204.46C71.8441 121.305 139.259 53.8952 222.414 53.8952C305.569 53.8952 372.974 121.305 372.974 204.46C372.974 287.61 305.569 355.025 222.414 355.025ZM222.414 66.2852C146.224 66.2852 84.2391 128.27 84.2391 204.46C84.2391 280.65 146.224 342.635 222.414 342.635C298.599 342.635 360.584 280.65 360.584 204.46C360.584 128.27 298.599 66.2852 222.414 66.2852Z" fill="white"/>
</mask>
<g mask="url(#mask6_513_2)">
<mask id="mask7_513_2" style="mask-type:luminance" maskUnits="userSpaceOnUse" x="-79" y="-97" width="603" height="603">
<path d="M222.409 505.59L523.544 204.46L222.409 -96.6748L-78.7209 204.46L222.409 505.59Z" fill="white"/>
</mask>
<g mask="url(#mask7_513_2)">
<path d="M222.409 505.59L523.544 204.46L222.409 -96.6748L-78.7209 204.46L222.409 505.59Z" fill="url(#paint1_linear_513_2)"/>
</g>
</g>
</g>
</g>
<mask id="mask8_513_2" style="mask-type:luminance" maskUnits="userSpaceOnUse" x="84" y="66" width="277" height="277">
<path d="M84.114 66.2852H360.584V342.635H84.114V66.2852Z" fill="white"/>
</mask>
<g mask="url(#mask8_513_2)">
<mask id="mask9_513_2" style="mask-type:luminance" maskUnits="userSpaceOnUse" x="84" y="66" width="277" height="277">
<path d="M222.414 342.635C146.224 342.635 84.239 280.65 84.239 204.46C84.239 128.27 146.224 66.2852 222.414 66.2852C298.599 66.2852 360.584 128.27 360.584 204.46C360.584 280.65 298.599 342.635 222.414 342.635ZM223.134 69.9002C167.759 69.9002 113.364 108.455 96.194 162.645C81.859 207.875 88.569 254.085 119.474 285.985C102.449 256.645 107.264 220.515 118.294 185.705C135.104 132.645 184.334 98.6602 237.249 98.6602C249.699 98.6602 262.354 100.54 274.839 104.495C295.159 110.94 315.209 112.22 329.094 126.55C314.059 100.645 288.484 84.9352 257.744 75.1902C246.389 71.5952 234.739 69.9002 223.134 69.9002Z" fill="white"/>
</mask>
<g mask="url(#mask9_513_2)">
<mask id="mask10_513_2" style="mask-type:luminance" maskUnits="userSpaceOnUse" x="84" y="66" width="277" height="277">
<path d="M222.414 342.635C146.224 342.635 84.239 280.65 84.239 204.46C84.239 128.27 146.224 66.2852 222.414 66.2852C298.599 66.2852 360.584 128.27 360.584 204.46C360.584 280.65 298.599 342.635 222.414 342.635ZM223.134 69.9002C167.759 69.9002 113.364 108.455 96.194 162.645C81.859 207.875 88.569 254.085 119.474 285.985C102.449 256.645 107.264 220.515 118.294 185.705C135.104 132.645 184.334 98.6602 237.249 98.6602C249.699 98.6602 262.354 100.54 274.839 104.495C295.159 110.94 315.209 112.22 329.094 126.55C314.059 100.645 288.484 84.9352 257.744 75.1902C246.389 71.5952 234.739 69.9002 223.134 69.9002Z" fill="white"/>
</mask>
<g mask="url(#mask10_513_2)">
<path d="M84.114 66.2852V342.635H360.584V66.2852H84.114Z" fill="url(#paint2_radial_513_2)"/>
</g>
</g>
</g>
<mask id="mask11_513_2" style="mask-type:luminance" maskUnits="userSpaceOnUse" x="88" y="69" width="242" height="217">
<path d="M88.574 69.9001H329.094V285.985H88.574V69.9001Z" fill="white"/>
</mask>
<g mask="url(#mask11_513_2)">
<mask id="mask12_513_2" style="mask-type:luminance" maskUnits="userSpaceOnUse" x="88" y="69" width="242" height="217">
<path d="M119.474 285.985C88.569 254.085 81.859 207.875 96.194 162.645C113.364 108.455 167.759 69.9001 223.134 69.9001C234.739 69.9001 246.389 71.5951 257.744 75.1901C288.484 84.9351 314.059 100.645 329.094 126.55C315.209 112.22 295.159 110.94 274.839 104.495C262.354 100.54 249.699 98.6601 237.249 98.6601C184.334 98.6601 135.104 132.645 118.294 185.705C107.264 220.515 102.449 256.645 119.474 285.985Z" fill="white"/>
</mask>
<g mask="url(#mask12_513_2)">
<mask id="mask13_513_2" style="mask-type:luminance" maskUnits="userSpaceOnUse" x="88" y="69" width="242" height="217">
<path d="M119.474 285.985C88.569 254.085 81.859 207.875 96.194 162.645C113.364 108.455 167.759 69.9001 223.134 69.9001C234.739 69.9001 246.389 71.5951 257.744 75.1901C288.484 84.9351 314.059 100.645 329.094 126.55C315.209 112.22 295.159 110.94 274.839 104.495C262.354 100.54 249.699 98.6601 237.249 98.6601C184.334 98.6601 135.104 132.645 118.294 185.705C107.264 220.515 102.449 256.645 119.474 285.985Z" fill="white"/>
</mask>
<g mask="url(#mask13_513_2)">
<path d="M88.574 69.9001V285.985H329.094V69.9001H88.574Z" fill="url(#paint3_radial_513_2)"/>
</g>
</g>
</g>
<path d="M152.37 71.9498L78.6299 84.7848C69.0999 86.4448 66.0749 92.8298 67.0049 98.1798C67.8799 103.195 72.4049 107.405 78.4249 106.36L88.4549 104.61L82.9399 133.31L75.2499 134.645C66.2199 136.22 62.8349 142.495 63.7649 147.845C64.6649 153.03 69.5549 157.345 77.5799 155.95L79.2499 155.66L73.4599 188.71C70.5149 205.42 64.3499 209.59 55.6549 211.105C49.6349 212.155 44.7549 208.87 42.5499 205.115C42.6799 203.89 42.6449 202.69 42.4399 201.52C41.1049 193.825 33.4299 190.335 26.9099 191.47C20.2199 192.635 14.3499 198.485 16.2099 209.185C18.9749 225.07 37.5999 238.025 59.5049 234.21C76.7249 231.21 92.2449 220.415 97.1199 192C99.0949 179.595 101.995 163.585 104.135 151.155L114.17 149.41C124.37 147.63 127.365 141.08 126.405 135.565C125.56 130.715 121.57 126.585 116.55 127.46L107.855 128.97L112.535 100.42L151.83 93.5798C161.135 91.6148 164.215 85.5648 163.285 80.2148C162.415 75.1998 158.055 70.9598 152.37 71.9498Z" fill="#A6A6A6" fill-opacity="0.302"/>
<path d="M199.062 173.91C199.087 174.08 198.622 171.4 197.402 168.34C198.427 167.3 199.362 165.76 200.107 164.08C202.222 159.405 204.707 143.985 203.542 137.295C200.572 120.24 184.547 111.315 166.487 114.46C150.767 117.195 137.402 128.48 134.642 144.295L128.432 180.865C127.652 185.305 127.712 189.605 128.352 193.28C131.407 210.84 148.292 218.755 165.347 215.785C178.387 213.515 189.532 207.27 194.462 194.005C197.617 194.32 201.217 194.21 204.727 193.6C224.457 190.165 237.562 173.41 240.192 154.865C240.372 152.935 240.417 151.205 240.157 149.7C239.077 143.515 233.952 140.79 229.102 141.635C224.587 142.42 220.372 145.91 219.612 152.415C217.737 163.425 211.297 171.955 201.432 173.67C200.762 173.785 199.757 173.96 199.062 173.91ZM179.027 150.865C178.787 152.46 178.517 153.885 178.582 155.25C169.212 155.85 162.327 164.8 164.077 174.83C165.232 180.49 168.597 183.005 172.242 185.125C171.087 191.355 166.732 195.045 161.547 195.945C155.027 197.08 152.657 193.36 151.957 189.345C151.407 186.17 151.717 183.015 152.097 181.225L158.057 145.215C159.102 139.345 164.402 135.15 169.587 134.25C174.772 133.345 178.727 136.275 179.397 140.12C179.922 143.13 179.587 147.15 179.027 150.865Z" fill="#A6A6A6" fill-opacity="0.302"/>
<path d="M286.346 158.717C286.371 158.887 285.906 156.207 284.686 153.147C285.711 152.107 286.646 150.567 287.391 148.887C289.506 144.212 291.991 128.792 290.826 122.102C287.856 105.047 271.831 96.1222 253.771 99.2672C238.051 102.002 224.686 113.287 221.926 129.102L215.716 165.672C214.936 170.112 214.996 174.412 215.636 178.087C218.691 195.647 235.576 203.562 252.631 200.592C265.671 198.322 276.816 192.077 281.746 178.812C284.901 179.127 288.501 179.017 292.011 178.407C311.741 174.972 324.846 158.217 327.476 139.672C327.656 137.742 327.701 136.012 327.441 134.507C326.361 128.322 321.236 125.597 316.386 126.442C311.871 127.227 307.656 130.717 306.896 137.222C305.021 148.232 298.581 156.762 288.716 158.477C288.046 158.592 287.041 158.767 286.346 158.717ZM266.311 135.672C266.071 137.267 265.801 138.692 265.866 140.057C256.496 140.657 249.611 149.607 251.361 159.637C252.516 165.297 255.881 167.812 259.526 169.932C258.371 176.162 254.016 179.852 248.831 180.752C242.311 181.887 239.941 178.167 239.241 174.152C238.691 170.977 239.001 167.822 239.381 166.032L245.341 130.022C246.386 124.152 251.686 119.957 256.871 119.057C262.056 118.152 266.011 121.082 266.681 124.927C267.206 127.937 266.871 131.957 266.311 135.672Z" fill="#A6A6A6" fill-opacity="0.302"/>
<path d="M405.55 116.089C401.035 116.874 396.76 120.029 396.185 125.644C392.155 147.019 384.61 157.119 377.085 158.429C373.74 159.009 371.495 156.989 371.025 154.314C370.85 153.309 370.845 152.279 371.165 150.154L388.135 45.7289C388.45 43.6039 388.795 40.6189 388.475 38.7789C387.22 31.5889 380.7 28.7589 374.845 29.7789C369.665 30.6839 365.485 35.3739 363.99 44.5889L356.28 90.3789C350.305 85.7339 342.395 83.8389 334.535 85.2089C323.665 87.0989 313.01 95.1589 310.705 108.649L302.68 156.564C302.06 159.944 302.14 163.374 302.665 166.384C305.225 181.099 318.845 189.069 333.225 186.564C341.085 185.194 349.315 181.009 354.87 173.319C361.04 178.104 369.68 180.219 378.04 178.764C394.595 175.884 411.59 160.689 417.09 125.969C417.22 124.739 417.35 123.509 417.175 122.509C416.27 117.324 410.73 115.184 405.55 116.089ZM332.42 160.174C329.1 159.889 327.825 157.529 327.36 154.849C326.985 152.679 327.135 150.584 327.375 148.989L332.045 119.409C333.67 108.959 337.895 106.504 340.57 106.034C343.75 105.484 347.815 108.049 348.805 113.734C349.24 116.244 349.29 119.509 348.515 123.949L345.005 144.374C342.14 157.619 335.715 160.289 332.42 160.174Z" fill="#A6A6A6" fill-opacity="0.302"/>
<path d="M144.439 63.1031L70.6992 75.9381C61.1692 77.5981 58.1442 83.9831 59.0742 89.3331C59.9492 94.3481 64.4742 98.5581 70.4942 97.5131L80.5242 95.7631L75.0092 124.463L67.3192 125.798C58.2892 127.373 54.9042 133.648 55.8342 138.998C56.7342 144.183 61.6242 148.498 69.6492 147.103L71.3192 146.813L65.5292 179.863C62.5842 196.573 56.4192 200.743 47.7242 202.258C41.7042 203.308 36.8242 200.023 34.6192 196.268C34.7492 195.043 34.7142 193.843 34.5092 192.673C33.1742 184.978 25.4992 181.488 18.9792 182.623C12.2892 183.788 6.41921 189.638 8.27921 200.338C11.0442 216.223 29.6692 229.178 51.5742 225.363C68.7942 222.363 84.3142 211.568 89.1892 183.153C91.1642 170.748 94.0642 154.738 96.2042 142.308L106.239 140.563C116.439 138.783 119.434 132.233 118.474 126.718C117.629 121.868 113.639 117.738 108.619 118.613L99.9242 120.123L104.604 91.5731L143.899 84.7331C153.204 82.7681 156.284 76.7181 155.354 71.3681C154.484 66.3531 150.124 62.1131 144.439 63.1031Z" fill="#A6A6A6" fill-opacity="0.502"/>
<path d="M191.131 165.064C191.156 165.234 190.691 162.554 189.471 159.494C190.496 158.454 191.431 156.914 192.176 155.234C194.291 150.559 196.776 135.139 195.611 128.449C192.641 111.394 176.616 102.469 158.556 105.614C142.836 108.349 129.471 119.634 126.711 135.449L120.501 172.019C119.721 176.459 119.781 180.759 120.421 184.434C123.476 201.994 140.361 209.909 157.416 206.939C170.456 204.669 181.601 198.424 186.531 185.159C189.686 185.474 193.286 185.364 196.796 184.754C216.526 181.319 229.631 164.564 232.261 146.019C232.441 144.089 232.486 142.359 232.226 140.854C231.146 134.669 226.021 131.944 221.171 132.789C216.656 133.574 212.441 137.064 211.681 143.569C209.806 154.579 203.366 163.109 193.501 164.824C192.831 164.939 191.826 165.114 191.131 165.064ZM171.096 142.019C170.856 143.614 170.586 145.039 170.651 146.404C161.281 147.004 154.396 155.954 156.146 165.984C157.301 171.644 160.666 174.159 164.311 176.279C163.156 182.509 158.801 186.199 153.616 187.099C147.096 188.234 144.726 184.514 144.026 180.499C143.476 177.324 143.786 174.169 144.166 172.379L150.126 136.369C151.171 130.499 156.471 126.304 161.656 125.404C166.841 124.499 170.796 127.429 171.466 131.274C171.991 134.284 171.656 138.304 171.096 142.019Z" fill="#A6A6A6" fill-opacity="0.502"/>
<path d="M278.416 149.87C278.441 150.04 277.976 147.36 276.756 144.3C277.781 143.26 278.716 141.72 279.461 140.04C281.576 135.365 284.061 119.945 282.896 113.255C279.926 96.2005 263.901 87.2755 245.841 90.4205C230.121 93.1555 216.756 104.44 213.996 120.255L207.786 156.825C207.006 161.265 207.066 165.565 207.706 169.24C210.761 186.8 227.646 194.715 244.701 191.745C257.741 189.475 268.886 183.23 273.816 169.965C276.971 170.28 280.571 170.17 284.081 169.56C303.811 166.125 316.916 149.37 319.546 130.825C319.726 128.895 319.771 127.165 319.511 125.66C318.431 119.475 313.306 116.75 308.456 117.595C303.941 118.38 299.726 121.87 298.966 128.375C297.091 139.385 290.651 147.915 280.786 149.63C280.116 149.745 279.111 149.92 278.416 149.87ZM258.381 126.825C258.141 128.42 257.871 129.845 257.936 131.21C248.566 131.81 241.681 140.76 243.431 150.79C244.586 156.45 247.951 158.965 251.596 161.085C250.441 167.315 246.086 171.005 240.901 171.905C234.381 173.04 232.011 169.32 231.311 165.305C230.761 162.13 231.071 158.975 231.451 157.185L237.411 121.175C238.456 115.305 243.756 111.11 248.941 110.21C254.126 109.305 258.081 112.235 258.751 116.08C259.276 119.09 258.941 123.11 258.381 126.825Z" fill="#A6A6A6" fill-opacity="0.502"/>
<path d="M397.62 107.242C393.105 108.027 388.83 111.182 388.255 116.797C384.225 138.172 376.68 148.272 369.155 149.582C365.81 150.162 363.565 148.142 363.095 145.467C362.92 144.462 362.915 143.432 363.235 141.307L380.205 36.8822C380.52 34.7572 380.865 31.7722 380.545 29.9322C379.29 22.7422 372.77 19.9122 366.915 20.9322C361.735 21.8372 357.555 26.5272 356.06 35.7422L348.35 81.5322C342.375 76.8872 334.465 74.9922 326.605 76.3622C315.735 78.2522 305.08 86.3122 302.775 99.8022L294.75 147.717C294.13 151.097 294.21 154.527 294.735 157.537C297.295 172.252 310.915 180.222 325.295 177.717C333.155 176.347 341.385 172.162 346.94 164.472C353.11 169.257 361.75 171.372 370.11 169.917C386.665 167.037 403.66 151.842 409.16 117.122C409.29 115.892 409.42 114.662 409.245 113.662C408.34 108.477 402.8 106.337 397.62 107.242ZM324.49 151.327C321.17 151.042 319.895 148.682 319.43 146.002C319.055 143.832 319.205 141.737 319.445 140.142L324.115 110.562C325.74 100.112 329.965 97.6572 332.64 97.1872C335.82 96.6372 339.885 99.2022 340.875 104.887C341.31 107.397 341.36 110.662 340.585 115.102L337.075 135.527C334.21 148.772 327.785 151.442 324.49 151.327Z" fill="#A6A6A6" fill-opacity="0.502"/>
<path d="M136.509 54.2564L62.7688 67.0914C53.2388 68.7514 50.2138 75.1364 51.1438 80.4864C52.0188 85.5014 56.5438 89.7114 62.5638 88.6664L72.5938 86.9164L67.0788 115.616L59.3888 116.951C50.3588 118.526 46.9738 124.801 47.9038 130.151C48.8038 135.336 53.6938 139.651 61.7188 138.256L63.3888 137.966L57.5988 171.016C54.6538 187.726 48.4888 191.896 39.7938 193.411C33.7738 194.461 28.8938 191.176 26.6888 187.421C26.8188 186.196 26.7838 184.996 26.5788 183.826C25.2438 176.131 17.5688 172.641 11.0488 173.776C4.35879 174.941 -1.51121 180.791 0.34879 191.491C3.11379 207.376 21.7388 220.331 43.6438 216.516C60.8638 213.516 76.3838 202.721 81.2588 174.306C83.2338 161.901 86.1338 145.891 88.2738 133.461L98.3088 131.716C108.509 129.936 111.504 123.386 110.544 117.871C109.699 113.021 105.709 108.891 100.689 109.766L91.9938 111.276L96.6738 82.7264L135.969 75.8864C145.274 73.9214 148.354 67.8714 147.424 62.5214C146.554 57.5064 142.194 53.2664 136.509 54.2564Z" fill="#737373"/>
<path d="M183.201 156.217C183.226 156.387 182.761 153.707 181.541 150.647C182.566 149.607 183.501 148.067 184.246 146.387C186.361 141.712 188.846 126.292 187.681 119.602C184.711 102.547 168.686 93.6219 150.626 96.7669C134.906 99.5019 121.541 110.787 118.781 126.602L112.571 163.172C111.791 167.612 111.851 171.912 112.491 175.587C115.546 193.147 132.431 201.062 149.486 198.092C162.526 195.822 173.671 189.577 178.601 176.312C181.756 176.627 185.356 176.517 188.866 175.907C208.596 172.472 221.701 155.717 224.331 137.172C224.511 135.242 224.556 133.512 224.296 132.007C223.216 125.822 218.091 123.097 213.241 123.942C208.726 124.727 204.511 128.217 203.751 134.722C201.876 145.732 195.436 154.262 185.571 155.977C184.901 156.092 183.896 156.267 183.201 156.217ZM163.166 133.172C162.926 134.767 162.656 136.192 162.721 137.557C153.351 138.157 146.466 147.107 148.216 157.137C149.371 162.797 152.736 165.312 156.381 167.432C155.226 173.662 150.871 177.352 145.686 178.252C139.166 179.387 136.796 175.667 136.096 171.652C135.546 168.477 135.856 165.322 136.236 163.532L142.196 127.522C143.241 121.652 148.541 117.457 153.726 116.557C158.911 115.652 162.866 118.582 163.536 122.427C164.061 125.437 163.726 129.457 163.166 133.172Z" fill="#737373"/>
<path d="M270.485 141.024C270.51 141.194 270.045 138.514 268.825 135.454C269.85 134.414 270.785 132.874 271.53 131.194C273.645 126.519 276.13 111.099 274.965 104.409C271.995 87.3538 255.97 78.4288 237.91 81.5738C222.19 84.3088 208.825 95.5938 206.065 111.409L199.855 147.979C199.075 152.419 199.135 156.719 199.775 160.394C202.83 177.954 219.715 185.869 236.77 182.899C249.81 180.629 260.955 174.384 265.885 161.119C269.04 161.434 272.64 161.324 276.15 160.714C295.88 157.279 308.985 140.524 311.615 121.979C311.795 120.049 311.84 118.319 311.58 116.814C310.5 110.629 305.375 107.904 300.525 108.749C296.01 109.534 291.795 113.024 291.035 119.529C289.16 130.539 282.72 139.069 272.855 140.784C272.185 140.899 271.18 141.074 270.485 141.024ZM250.45 117.979C250.21 119.574 249.94 120.999 250.005 122.364C240.635 122.964 233.75 131.914 235.5 141.944C236.655 147.604 240.02 150.119 243.665 152.239C242.51 158.469 238.155 162.159 232.97 163.059C226.45 164.194 224.08 160.474 223.38 156.459C222.83 153.284 223.14 150.129 223.52 148.339L229.48 112.329C230.525 106.459 235.825 102.264 241.01 101.364C246.195 100.459 250.15 103.389 250.82 107.234C251.345 110.244 251.01 114.264 250.45 117.979Z" fill="#737373"/>
<path d="M389.689 98.3955C385.174 99.1805 380.899 102.336 380.324 107.951C376.294 129.326 368.749 139.426 361.224 140.736C357.879 141.316 355.634 139.296 355.164 136.621C354.989 135.616 354.984 134.586 355.304 132.461L372.274 28.0355C372.589 25.9105 372.934 22.9255 372.614 21.0855C371.359 13.8955 364.839 11.0655 358.984 12.0855C353.804 12.9905 349.624 17.6805 348.129 26.8955L340.419 72.6855C334.444 68.0405 326.534 66.1455 318.674 67.5155C307.804 69.4055 297.149 77.4655 294.844 90.9555L286.819 138.871C286.199 142.251 286.279 145.681 286.804 148.691C289.364 163.406 302.984 171.376 317.364 168.871C325.224 167.501 333.454 163.316 339.009 155.626C345.179 160.411 353.819 162.526 362.179 161.071C378.734 158.191 395.729 142.996 401.229 108.276C401.359 107.046 401.489 105.816 401.314 104.816C400.409 99.6305 394.869 97.4905 389.689 98.3955ZM316.559 142.481C313.239 142.196 311.964 139.836 311.499 137.156C311.124 134.986 311.274 132.891 311.514 131.296L316.184 101.716C317.809 91.2655 322.034 88.8105 324.709 88.3405C327.889 87.7905 331.954 90.3555 332.944 96.0405C333.379 98.5505 333.429 101.816 332.654 106.256L329.144 126.681C326.279 139.926 319.854 142.596 316.559 142.481Z" fill="#737373"/>
<path d="M130.462 244.582C126.117 245.237 120.672 247.012 117.212 250.392C116.127 245.317 110.487 242.677 104.902 243.522C99.3122 244.367 94.0372 248.337 92.4172 256.522L70.1422 374.992C69.8022 376.952 69.5972 378.727 69.8272 380.282C70.8622 387.112 77.2372 390.432 83.4472 389.497C88.5672 388.722 93.5322 384.797 94.9172 377.127L100.697 344.977C106.902 349.277 115.312 351.342 124.002 350.027C139.217 347.732 154.262 335.932 158.272 315.162L165.332 278.847C166.142 274.757 166.307 270.602 165.792 267.187C163.097 249.337 147.537 242.002 130.462 244.582ZM139.677 283.517L134.407 312.732C132.942 320.892 127.652 325.822 121.597 326.737C114.767 327.767 108.407 323.487 107.352 316.502C107.162 315.262 107.177 314.307 107.457 312.992L113.407 279.867C115.067 270.882 120.987 266.972 127.192 266.032C133.402 265.097 138.672 268.427 139.797 275.877C140.102 277.897 140.167 280.427 139.677 283.517Z" fill="#A6A6A6" fill-opacity="0.302"/>
<path d="M227.711 334.522C227.736 334.677 227.361 332.192 226.296 329.337C227.261 328.397 228.161 326.992 228.881 325.452C230.936 321.172 233.551 306.967 232.616 300.757C230.221 284.922 215.591 276.337 198.826 278.872C184.231 281.072 171.636 291.232 168.756 305.797L162.256 339.487C161.446 343.577 161.411 347.552 161.926 350.967C164.386 367.267 179.836 374.937 195.666 372.542C207.776 370.717 218.211 365.172 223.041 353.007C225.956 353.362 229.286 353.337 232.546 352.842C250.861 350.077 263.326 334.857 266.141 317.762C266.351 315.982 266.426 314.382 266.216 312.987C265.346 307.242 260.666 304.617 256.161 305.297C251.971 305.932 248.001 309.072 247.161 315.072C245.201 325.212 239.066 332.967 229.911 334.347C229.286 334.442 228.356 334.582 227.711 334.522ZM209.666 312.797C209.411 314.262 209.131 315.577 209.166 316.842C200.486 317.202 193.936 325.332 195.341 334.647C196.296 339.902 199.356 342.297 202.681 344.337C201.481 350.072 197.381 353.392 192.566 354.117C186.516 355.032 184.401 351.542 183.836 347.817C183.391 344.867 183.746 341.957 184.131 340.312L190.391 307.132C191.481 301.732 196.471 297.962 201.281 297.232C206.091 296.507 209.691 299.297 210.231 302.867C210.651 305.662 210.261 309.372 209.666 312.797Z" fill="#A6A6A6" fill-opacity="0.302"/>
<path d="M273.808 252.939C280.793 251.884 285.668 245.269 284.593 238.129C283.538 231.144 276.948 226.424 269.963 227.479C262.978 228.534 258.078 234.989 259.133 241.974C260.213 249.114 266.823 253.994 273.808 252.939ZM264.813 335.269L274.523 283.949C274.838 281.834 275.288 279.544 275.053 277.994C274.023 271.164 268.358 268.369 263.083 269.164C258.268 269.889 253.663 274.079 252.283 281.749C249.518 297.094 245.788 316.549 243.003 331.734C242.538 334.979 241.933 339.359 242.328 341.999C244.533 356.589 257.908 363.144 272.188 360.984C287.403 358.689 302.758 346.844 308.773 313.069C308.943 312.089 308.958 311.134 308.813 310.204C308.088 305.394 302.988 303.149 298.328 303.849C294.138 304.484 290.273 307.289 289.138 312.384C284.893 333.664 277.628 341.274 271.418 342.209C267.848 342.749 265.168 340.774 264.723 337.824C264.603 337.044 264.643 336.249 264.813 335.269Z" fill="#A6A6A6" fill-opacity="0.302"/>
<path d="M370.677 300.384C366.662 320.044 359.272 328.939 351.977 330.044C349.182 330.464 347.417 329.299 347.022 326.664C346.857 325.574 346.977 324.289 347.212 322.664L354.112 286.374C354.732 283.104 354.927 280.219 354.532 277.579C352.657 265.159 340.692 257.444 328.272 259.319C322.222 260.234 317.617 262.354 314.027 265.914C312.677 263.264 308.562 262.294 304.367 262.929C300.022 263.584 296.137 266.234 295.242 270.819L280.267 347.224C280.012 348.689 280.047 349.959 280.232 351.199C281.102 356.944 286.047 359.209 291.012 358.459C296.447 357.639 302.142 353.289 303.412 345.949C306.572 330.074 310.812 307.679 313.837 291.984C316.857 283.589 321.727 279.039 326.072 278.384C328.867 277.964 331.167 279.519 331.612 282.469C331.777 283.559 331.677 284.999 331.422 286.469L324.922 320.159C324.217 323.914 323.957 327.449 324.452 330.709C326.607 344.989 339.552 350.814 352.747 348.819C368.582 346.429 383.882 333.159 390.022 301.274C390.302 299.959 390.422 298.674 390.257 297.584C389.507 292.619 384.607 290.659 379.952 291.364C375.762 291.994 371.457 295.029 370.677 300.384Z" fill="#A6A6A6" fill-opacity="0.302"/>
<path d="M421.105 293.72C417.475 311.735 408.94 321.435 399.935 322.795C394.345 323.64 390.415 320.74 389.78 316.55C389.62 315.465 389.74 314.175 389.89 313.04L398.56 267.435L408.65 265.91C416.565 264.715 419.91 258.495 419.14 253.37C418.53 249.335 415.35 246.165 409.45 247.055L402.465 248.11L408.295 216.27C408.44 215.135 408.455 214.18 408.315 213.25C407.445 207.505 402.71 203.46 395.88 204.49C390.755 205.265 386.95 209.49 385.905 215.205L378.715 251.7L372.195 252.685C363.815 253.95 361.04 259.765 361.79 264.735C362.45 269.08 365.65 272.405 369.84 271.775L374.965 271L367.575 310.38L367.55 310.225C366.875 314.135 366.765 317.645 367.26 320.905C369.65 336.74 385.185 343.92 401.17 341.505C421.04 338.505 435.425 321.245 440.425 294.455C440.575 293.32 440.72 292.185 440.58 291.255C439.875 286.6 434.93 284.33 430.115 285.055C426.235 285.64 422.215 288.47 421.105 293.72Z" fill="#A6A6A6" fill-opacity="0.302"/>
<path d="M123.312 236.236C118.967 236.891 113.522 238.666 110.062 242.046C108.977 236.971 103.337 234.331 97.752 235.176C92.162 236.021 86.887 239.991 85.267 248.176L62.992 366.646C62.652 368.606 62.447 370.381 62.677 371.936C63.712 378.766 70.087 382.086 76.297 381.151C81.417 380.376 86.382 376.451 87.767 368.781L93.547 336.631C99.752 340.931 108.162 342.996 116.852 341.681C132.067 339.386 147.112 327.586 151.122 306.816L158.182 270.501C158.992 266.411 159.157 262.256 158.642 258.841C155.947 240.991 140.387 233.656 123.312 236.236ZM132.527 275.171L127.257 304.386C125.792 312.546 120.502 317.476 114.447 318.391C107.617 319.421 101.257 315.141 100.202 308.156C100.012 306.916 100.027 305.961 100.307 304.646L106.257 271.521C107.917 262.536 113.837 258.626 120.042 257.686C126.252 256.751 131.522 260.081 132.647 267.531C132.952 269.551 133.017 272.081 132.527 275.171Z" fill="#A6A6A6" fill-opacity="0.502"/>
<path d="M220.561 326.177C220.586 326.332 220.211 323.847 219.146 320.992C220.111 320.052 221.011 318.647 221.731 317.107C223.786 312.827 226.401 298.622 225.466 292.412C223.071 276.577 208.441 267.992 191.676 270.527C177.081 272.727 164.486 282.887 161.606 297.452L155.106 331.142C154.296 335.232 154.261 339.207 154.776 342.622C157.236 358.922 172.686 366.592 188.516 364.197C200.626 362.372 211.061 356.827 215.891 344.662C218.806 345.017 222.136 344.992 225.396 344.497C243.711 341.732 256.176 326.512 258.991 309.417C259.201 307.637 259.276 306.037 259.066 304.642C258.196 298.897 253.516 296.272 249.011 296.952C244.821 297.587 240.851 300.727 240.011 306.727C238.051 316.867 231.916 324.622 222.761 326.002C222.136 326.097 221.206 326.237 220.561 326.177ZM202.516 304.452C202.261 305.917 201.981 307.232 202.016 308.497C193.336 308.857 186.786 316.987 188.191 326.302C189.146 331.557 192.206 333.952 195.531 335.992C194.331 341.727 190.231 345.047 185.416 345.772C179.366 346.687 177.251 343.197 176.686 339.472C176.241 336.522 176.596 333.612 176.981 331.967L183.241 298.787C184.331 293.387 189.321 289.617 194.131 288.887C198.941 288.162 202.541 290.952 203.081 294.522C203.501 297.317 203.111 301.027 202.516 304.452Z" fill="#A6A6A6" fill-opacity="0.502"/>
<path d="M266.658 244.594C273.643 243.539 278.518 236.924 277.443 229.784C276.388 222.799 269.798 218.079 262.813 219.134C255.828 220.189 250.928 226.644 251.983 233.629C253.063 240.769 259.673 245.649 266.658 244.594ZM257.663 326.924L267.373 275.604C267.688 273.489 268.138 271.199 267.903 269.649C266.873 262.819 261.208 260.024 255.933 260.819C251.118 261.544 246.513 265.734 245.133 273.404C242.368 288.749 238.638 308.204 235.853 323.389C235.388 326.634 234.783 331.014 235.178 333.654C237.383 348.244 250.758 354.799 265.038 352.639C280.253 350.344 295.608 338.499 301.623 304.724C301.793 303.744 301.808 302.789 301.663 301.859C300.938 297.049 295.838 294.804 291.178 295.504C286.988 296.139 283.123 298.944 281.988 304.039C277.743 325.319 270.478 332.929 264.268 333.864C260.698 334.404 258.018 332.429 257.573 329.479C257.453 328.699 257.493 327.904 257.663 326.924Z" fill="#A6A6A6" fill-opacity="0.502"/>
<path d="M363.527 292.038C359.512 311.698 352.122 320.593 344.827 321.698C342.032 322.118 340.267 320.953 339.872 318.318C339.707 317.228 339.827 315.943 340.062 314.318L346.962 278.028C347.582 274.758 347.777 271.873 347.382 269.233C345.507 256.813 333.542 249.098 321.122 250.973C315.072 251.888 310.467 254.008 306.877 257.568C305.527 254.918 301.412 253.948 297.217 254.583C292.872 255.238 288.987 257.888 288.092 262.473L273.117 338.878C272.862 340.343 272.897 341.613 273.082 342.853C273.952 348.598 278.897 350.863 283.862 350.113C289.297 349.293 294.992 344.943 296.262 337.603C299.422 321.728 303.662 299.333 306.687 283.638C309.707 275.243 314.577 270.693 318.922 270.038C321.717 269.618 324.017 271.173 324.462 274.123C324.627 275.213 324.527 276.653 324.272 278.123L317.772 311.813C317.067 315.568 316.807 319.103 317.302 322.363C319.457 336.643 332.402 342.468 345.597 340.473C361.432 338.083 376.732 324.813 382.872 292.928C383.152 291.613 383.272 290.328 383.107 289.238C382.357 284.273 377.457 282.313 372.802 283.018C368.612 283.648 364.307 286.683 363.527 292.038Z" fill="#A6A6A6" fill-opacity="0.502"/>
<path d="M413.955 285.375C410.325 303.39 401.79 313.09 392.785 314.45C387.195 315.295 383.265 312.395 382.63 308.205C382.47 307.12 382.59 305.83 382.74 304.695L391.41 259.09L401.5 257.565C409.415 256.37 412.76 250.15 411.99 245.025C411.38 240.99 408.2 237.82 402.3 238.71L395.315 239.765L401.145 207.925C401.29 206.79 401.305 205.835 401.165 204.905C400.295 199.16 395.56 195.115 388.73 196.145C383.605 196.92 379.8 201.145 378.755 206.86L371.565 243.355L365.045 244.34C356.665 245.605 353.89 251.42 354.64 256.39C355.3 260.735 358.5 264.06 362.69 263.43L367.815 262.655L360.425 302.035L360.4 301.88C359.725 305.79 359.615 309.3 360.11 312.56C362.5 328.395 378.035 335.575 394.02 333.16C413.89 330.16 428.275 312.9 433.275 286.11C433.425 284.975 433.57 283.84 433.43 282.91C432.725 278.255 427.78 275.985 422.965 276.71C419.085 277.295 415.065 280.125 413.955 285.375Z" fill="#A6A6A6" fill-opacity="0.502"/>
<path d="M116.162 227.891C111.817 228.546 106.372 230.321 102.912 233.701C101.827 228.626 96.1869 225.986 90.6019 226.831C85.0119 227.676 79.7369 231.646 78.1169 239.831L55.8419 358.301C55.5019 360.261 55.2969 362.036 55.5269 363.591C56.5619 370.421 62.9369 373.741 69.1469 372.806C74.2669 372.031 79.2319 368.106 80.6169 360.436L86.3969 328.286C92.6019 332.586 101.012 334.651 109.702 333.336C124.917 331.041 139.962 319.241 143.972 298.471L151.032 262.156C151.842 258.066 152.007 253.911 151.492 250.496C148.797 232.646 133.237 225.311 116.162 227.891ZM125.377 266.826L120.107 296.041C118.642 304.201 113.352 309.131 107.297 310.046C100.467 311.076 94.1069 306.796 93.0519 299.811C92.8619 298.571 92.8769 297.616 93.1569 296.301L99.1069 263.176C100.767 254.191 106.687 250.281 112.892 249.341C119.102 248.406 124.372 251.736 125.497 259.186C125.802 261.206 125.867 263.736 125.377 266.826Z" fill="#737373"/>
<path d="M213.411 317.832C213.436 317.987 213.061 315.502 211.996 312.647C212.961 311.707 213.861 310.302 214.581 308.762C216.636 304.482 219.251 290.277 218.316 284.067C215.921 268.232 201.291 259.647 184.526 262.182C169.931 264.382 157.336 274.542 154.456 289.107L147.956 322.797C147.146 326.887 147.111 330.862 147.626 334.277C150.086 350.577 165.536 358.247 181.366 355.852C193.476 354.027 203.911 348.482 208.741 336.317C211.656 336.672 214.986 336.647 218.246 336.152C236.561 333.387 249.026 318.167 251.841 301.072C252.051 299.292 252.126 297.692 251.916 296.297C251.046 290.552 246.366 287.927 241.861 288.607C237.671 289.242 233.701 292.382 232.861 298.382C230.901 308.522 224.766 316.277 215.611 317.657C214.986 317.752 214.056 317.892 213.411 317.832ZM195.366 296.107C195.111 297.572 194.831 298.887 194.866 300.152C186.186 300.512 179.636 308.642 181.041 317.957C181.996 323.212 185.056 325.607 188.381 327.647C187.181 333.382 183.081 336.702 178.266 337.427C172.216 338.342 170.101 334.852 169.536 331.127C169.091 328.177 169.446 325.267 169.831 323.622L176.091 290.442C177.181 285.042 182.171 281.272 186.981 280.542C191.791 279.817 195.391 282.607 195.931 286.177C196.351 288.972 195.961 292.682 195.366 296.107Z" fill="#737373"/>
<path d="M259.508 236.248C266.493 235.193 271.368 228.578 270.293 221.438C269.238 214.453 262.648 209.733 255.663 210.788C248.678 211.843 243.778 218.298 244.833 225.283C245.913 232.423 252.523 237.303 259.508 236.248ZM250.513 318.578L260.223 267.258C260.538 265.143 260.988 262.853 260.753 261.303C259.723 254.473 254.058 251.678 248.783 252.473C243.968 253.198 239.363 257.388 237.983 265.058C235.218 280.403 231.488 299.858 228.703 315.043C228.238 318.288 227.633 322.668 228.028 325.308C230.233 339.898 243.608 346.453 257.888 344.293C273.103 341.998 288.458 330.153 294.473 296.378C294.643 295.398 294.658 294.443 294.513 293.513C293.788 288.703 288.688 286.458 284.028 287.158C279.838 287.793 275.973 290.598 274.838 295.693C270.593 316.973 263.328 324.583 257.118 325.518C253.548 326.058 250.868 324.083 250.423 321.133C250.303 320.353 250.343 319.558 250.513 318.578Z" fill="#737373"/>
<path d="M356.377 283.693C352.362 303.353 344.972 312.248 337.677 313.353C334.882 313.773 333.117 312.608 332.722 309.973C332.557 308.883 332.677 307.598 332.912 305.973L339.812 269.683C340.432 266.413 340.627 263.528 340.232 260.888C338.357 248.468 326.392 240.753 313.972 242.628C307.922 243.543 303.317 245.663 299.727 249.223C298.377 246.573 294.262 245.603 290.067 246.238C285.722 246.893 281.837 249.543 280.942 254.128L265.967 330.533C265.712 331.998 265.747 333.268 265.932 334.508C266.802 340.253 271.747 342.518 276.712 341.768C282.147 340.948 287.842 336.598 289.112 329.258C292.272 313.383 296.512 290.988 299.537 275.293C302.557 266.898 307.427 262.348 311.772 261.693C314.567 261.273 316.867 262.828 317.312 265.778C317.477 266.868 317.377 268.308 317.122 269.778L310.622 303.468C309.917 307.223 309.657 310.758 310.152 314.018C312.307 328.298 325.252 334.123 338.447 332.128C354.282 329.738 369.582 316.468 375.722 284.583C376.002 283.268 376.122 281.983 375.957 280.893C375.207 275.928 370.307 273.968 365.652 274.673C361.462 275.303 357.157 278.338 356.377 283.693Z" fill="#737373"/>
<path d="M406.805 277.03C403.175 295.045 394.64 304.745 385.635 306.105C380.045 306.95 376.115 304.05 375.48 299.86C375.32 298.775 375.44 297.485 375.59 296.35L384.26 250.745L394.35 249.22C402.265 248.025 405.61 241.805 404.84 236.68C404.23 232.645 401.05 229.475 395.15 230.365L388.165 231.42L393.995 199.58C394.14 198.445 394.155 197.49 394.015 196.56C393.145 190.815 388.41 186.77 381.58 187.8C376.455 188.575 372.65 192.8 371.605 198.515L364.415 235.01L357.895 235.995C349.515 237.26 346.74 243.075 347.49 248.045C348.15 252.39 351.35 255.715 355.54 255.085L360.665 254.31L353.275 293.69L353.25 293.535C352.575 297.445 352.465 300.955 352.96 304.215C355.35 320.05 370.885 327.23 386.87 324.815C406.74 321.815 421.125 304.555 426.125 277.765C426.275 276.63 426.42 275.495 426.28 274.565C425.575 269.91 420.63 267.64 415.815 268.365C411.935 268.95 407.915 271.78 406.805 277.03Z" fill="#737373"/>
<defs>
<radialGradient id="paint0_radial_513_2" cx="0" cy="0" r="1" gradientUnits="userSpaceOnUse" gradientTransform="translate(222.412 204.459) scale(201.375)">
<stop stop-color="#F1F2F2"/>
<stop offset="0.5" stop-color="#F1F2F2"/>
<stop offset="0.75" stop-color="#F1F2F2"/>
<stop offset="0.8125" stop-color="#F1F1F1"/>
<stop offset="0.859375" stop-color="#F1F1F1"/>
<stop offset="0.894531" stop-color="#F0F0F0"/>
<stop offset="1" stop-color="#F0F0F0"/>
</radialGradient>
<linearGradient id="paint1_linear_513_2" x1="372.94" y1="355.061" x2="71.8082" y2="53.9294" gradientUnits="userSpaceOnUse">
<stop stop-color="white"/>
<stop offset="0.125" stop-color="white"/>
<stop offset="0.15625" stop-color="white"/>
<stop offset="0.171875" stop-color="#FEFEFE"/>
<stop offset="0.1875" stop-color="#FDFDFD"/>
<stop offset="0.195312" stop-color="#FDFDFD"/>
<stop offset="0.203125" stop-color="#FCFCFC"/>
<stop offset="0.21875" stop-color="#FBFBFB"/>
<stop offset="0.234375" stop-color="#FBFBFB"/>
<stop offset="0.25" stop-color="#FAFAFA"/>
<stop offset="0.265625" stop-color="#F9F9F9"/>
<stop offset="0.28125" stop-color="#F8F8F8"/>
<stop offset="0.296875" stop-color="#F8F8F8"/>
<stop offset="0.3125" stop-color="#F7F7F7"/>
<stop offset="0.320312" stop-color="#F6F6F6"/>
<stop offset="0.328125" stop-color="#F5F5F5"/>
<stop offset="0.34375" stop-color="#F5F5F5"/>
<stop offset="0.359375" stop-color="#F4F4F4"/>
<stop offset="0.375" stop-color="#F4F4F4"/>
<stop offset="0.390625" stop-color="#F3F3F3"/>
<stop offset="0.398438" stop-color="#F2F2F2"/>
<stop offset="0.40625" stop-color="#F1F1F1"/>
<stop offset="0.421875" stop-color="#F0F0F0"/>
<stop offset="0.4375" stop-color="#EFEFEF"/>
<stop offset="0.445312" stop-color="#EFEFEF"/>
<stop offset="0.453125" stop-color="#EEEEEE"/>
<stop offset="0.46875" stop-color="#EDEDED"/>
<stop offset="0.476562" stop-color="#EDEDED"/>
<stop offset="0.484375" stop-color="#ECECEC"/>
<stop offset="0.5" stop-color="#ECECEC"/>
<stop offset="0.515625" stop-color="#EBEBEB"/>
<stop offset="0.523437" stop-color="#EBEBEB"/>
<stop offset="0.53125" stop-color="#EAEAEA"/>
<stop offset="0.546875" stop-color="#EAEAEA"/>
<stop offset="0.5625" stop-color="#E9E9E9"/>
<stop offset="0.570312" stop-color="#E8E8E8"/>
<stop offset="0.578125" stop-color="#E7E7E7"/>
<stop offset="0.59375" stop-color="#E7E7E7"/>
<stop offset="0.601563" stop-color="#E6E6E6"/>
<stop offset="0.609375" stop-color="#E5E5E5"/>
<stop offset="0.625" stop-color="#E4E4E4"/>
<stop offset="0.640625" stop-color="#E4E4E4"/>
<stop offset="0.648437" stop-color="#E4E4E4"/>
<stop offset="0.65625" stop-color="#E3E3E3"/>
<stop offset="0.671875" stop-color="#E2E2E2"/>
<stop offset="0.6875" stop-color="#E1E1E1"/>
<stop offset="0.695312" stop-color="#E1E1E1"/>
<stop offset="0.703125" stop-color="#E0E0E0"/>
<stop offset="0.71875" stop-color="#E0E0E0"/>
<stop offset="0.726562" stop-color="#DFDFDF"/>
<stop offset="0.734375" stop-color="#DEDEDE"/>
<stop offset="0.75" stop-color="#DEDEDE"/>
<stop offset="0.757812" stop-color="#DDDDDD"/>
<stop offset="0.765625" stop-color="#DCDCDC"/>
<stop offset="0.78125" stop-color="#DCDCDC"/>
<stop offset="0.796875" stop-color="#DCDCDC"/>
<stop offset="0.8125" stop-color="#DBDBDB"/>
<stop offset="0.820312" stop-color="#DADADA"/>
<stop offset="0.828125" stop-color="#D9D9D9"/>
<stop offset="0.84375" stop-color="#D8D8D8"/>
<stop offset="0.859375" stop-color="#D8D8D8"/>
<stop offset="0.875" stop-color="#D7D7D7"/>
<stop offset="1" stop-color="#D7D7D7"/>
</linearGradient>
<radialGradient id="paint2_radial_513_2" cx="0" cy="0" r="1" gradientUnits="userSpaceOnUse" gradientTransform="translate(222.411 204.459) scale(138.174 138.174)">
<stop stop-color="#F1F2F2"/>
<stop offset="0.25" stop-color="#F0F1F1"/>
<stop offset="0.625" stop-color="#F0F1F1"/>
<stop offset="0.648438" stop-color="#EFF0F0"/>
<stop offset="0.691406" stop-color="#EFF0F0"/>
<stop offset="0.726562" stop-color="#EEEFEF"/>
<stop offset="0.757812" stop-color="#EEEFEF"/>
<stop offset="0.785156" stop-color="#EDEEEE"/>
<stop offset="0.808594" stop-color="#ECEDEE"/>
<stop offset="0.832031" stop-color="#ECEDED"/>
<stop offset="0.851562" stop-color="#EBECED"/>
<stop offset="0.867188" stop-color="#EBECEC"/>
<stop offset="0.882812" stop-color="#EBECEC"/>
<stop offset="0.894531" stop-color="#EAEBEB"/>
<stop offset="0.917969" stop-color="#E9EAEB"/>
<stop offset="0.925781" stop-color="#E9EAEB"/>
<stop offset="0.941406" stop-color="#E8E9EA"/>
<stop offset="0.96875" stop-color="#E7E8E9"/>
<stop offset="0.976562" stop-color="#E7E8E9"/>
<stop offset="0.980469" stop-color="#E6E7E8"/>
<stop offset="1" stop-color="#E6E7E8"/>
</radialGradient>
<radialGradient id="paint3_radial_513_2" cx="0" cy="0" r="1" gradientUnits="userSpaceOnUse" gradientTransform="translate(222.411 204.459) scale(138.174 138.174)">
<stop stop-color="#F8F9F9"/>
<stop offset="0.5" stop-color="#F8F9F9"/>
<stop offset="0.5625" stop-color="#F7F8F8"/>
<stop offset="0.671875" stop-color="#F7F7F8"/>
<stop offset="0.753906" stop-color="#F6F7F7"/>
<stop offset="0.8125" stop-color="#F6F6F7"/>
<stop offset="0.859375" stop-color="#F5F6F6"/>
<stop offset="0.894531" stop-color="#F5F5F6"/>
<stop offset="0.917969" stop-color="#F4F4F5"/>
<stop offset="0.9375" stop-color="#F3F3F4"/>
<stop offset="1" stop-color="#F3F3F4"/>
</radialGradient>
</defs>
</svg>
